<?xml version="1.0" encoding="UTF-8"?>
<svg width="35px" height="26px" viewBox="0 0 35 26" version="1.1" xmlns="http://www.w3.org/2000/svg" xmlns:xlink="http://www.w3.org/1999/xlink">
    <!-- Generator: Sketch 48.2 (47327) - http://www.bohemiancoding.com/sketch -->
    <title>Shape</title>
    <desc>Created with Sketch.</desc>
    <defs></defs>
    <g id="Depoimentos" stroke="none" stroke-width="1" fill="none" fill-rule="evenodd" transform="translate(-942.000000, -145.000000)">
        <g transform="translate(711.000000, 146.000000)" fill-rule="nonzero" id="Card-Depoimento-1" stroke="#F3123C" stroke-width="1.5">
            <g>
                <path d="M245.671929,9.92905099 C245.671929,13.5291236 244.922882,16.3714389 243.424787,18.4530938 C241.926692,20.5347487 239.360189,22.3783342 235.71947,23.9693341 L232.975866,18.7753584 C235.214299,17.7272727 236.761749,16.6791871 237.615315,15.6398113 C238.471784,14.5946289 238.947922,13.3636364 239.046634,11.9439303 L232.975866,11.9439303 L232.975866,0.15078933 L245.671929,0.15078933 L245.671929,9.92905099 Z M265.144257,9.92905099 C265.144257,13.5291236 264.39521,16.3714389 262.897115,18.4530938 C261.39902,20.5405553 258.832517,22.3783342 255.191798,23.9693341 L252.451098,18.7753584 C254.68953,17.7272727 256.236981,16.6791871 257.093449,15.6398113 C257.949918,14.5946289 258.426057,13.3636364 258.524769,11.9439303 L252.454001,11.9439303 L252.454001,0.15078933 L265.150064,0.15078933 L265.144257,9.92905099 Z" id="Shape"></path>
            </g>
        </g>
    </g>
</svg>