<?xml version="1.0" encoding="UTF-8"?>
<svg width="26px" height="30px" viewBox="0 0 26 30" version="1.1" xmlns="http://www.w3.org/2000/svg" xmlns:xlink="http://www.w3.org/1999/xlink">
    <!-- Generator: Sketch 48 (47235) - http://www.bohemiancoding.com/sketch -->
    <title>Shape</title>
    <desc>Created with Sketch.</desc>
    <defs></defs>
    <g id="Depoimentos" stroke="none" stroke-width="1" fill="none" fill-rule="evenodd" transform="translate(-947.000000, -326.000000)">
        <g transform="translate(717.000000, 136.000000)" fill-rule="nonzero" id="Card-Depoimento-1" stroke="#F3123C">
            <g>
                <path d="M243.076,191 C236.407,191 231,196.407 231,203.076 C231,206.526 232.454,209.629 234.773,211.828 L234.369,218.555 L240.105,214.768 C241.057,215.009 242.049,215.151 243.076,215.151 C249.746,215.151 255.152,209.745 255.152,203.075 C255.153,196.407 249.746,191 243.076,191 Z M241.909,202.342 C241.909,203.582 241.651,204.561 241.135,205.278 C240.619,205.995 239.735,206.63 238.481,207.178 L237.536,205.389 C238.307,205.028 238.84,204.667 239.134,204.309 C239.429,203.949 239.593,203.525 239.627,203.036 L237.536,203.036 L237.536,198.974 L241.909,198.974 L241.909,202.342 Z M248.616,202.342 C248.616,203.582 248.358,204.561 247.842,205.278 C247.326,205.997 246.442,206.63 245.188,207.178 L244.244,205.389 C245.015,205.028 245.548,204.667 245.843,204.309 C246.138,203.949 246.302,203.525 246.336,203.036 L244.245,203.036 L244.245,198.974 L248.618,198.974 L248.616,202.342 Z" id="Shape"></path>
            </g>
        </g>
    </g>
</svg>