<?xml version="1.0" encoding="UTF-8"?>
<svg width="24px" height="20px" viewBox="0 0 24 20" version="1.1" xmlns="http://www.w3.org/2000/svg" xmlns:xlink="http://www.w3.org/1999/xlink">
    <!-- Generator: Sketch 44.1 (41455) - http://www.bohemiancoding.com/sketch -->
    <title>Page 1 Copy 4</title>
    <desc>Created with Sketch.</desc>
    <defs></defs>
    <g id="Symbols" stroke="none" stroke-width="1" fill="none" fill-rule="evenodd" opacity="0.7">
        <g id="Footer-Desktop" transform="translate(-1438.000000, -27.000000)" fill="#FFFFFF">
            <g id="Footer">
                <path d="M1444.32794,47 C1446.20632,47 1447.69207,46.553507 1448.78522,45.6605081 C1449.87837,44.7675091 1450.42494,43.7205602 1450.42494,42.5196305 C1450.42494,41.6266309 1450.26328,40.8799121 1449.93995,40.2794442 C1449.61663,39.6789794 1449.05466,39.0862241 1448.25404,38.5011547 C1447.88452,38.2548094 1447.52271,37.9391845 1447.16859,37.554274 C1446.81447,37.1693606 1446.63741,36.8383372 1446.63741,36.5612009 C1446.63741,36.2224769 1446.7067,35.9376458 1446.84527,35.7066989 C1446.98384,35.4757491 1447.29946,35.1755226 1447.79215,34.8060046 C1448.96228,33.8822112 1449.54734,32.8044719 1449.54734,31.5727483 C1449.54734,30.7721275 1449.37029,30.0408041 1449.01616,29.3787514 C1448.66205,28.7167017 1448.17706,28.2625116 1447.5612,28.0161663 L1449.54734,28.0161663 L1450.93303,27 L1444.74365,27 C1443.32717,27 1442.07237,27.4541901 1440.97921,28.3625851 C1439.88606,29.2709831 1439.33949,30.3256292 1439.33949,31.5265589 C1439.33949,32.7890734 1439.77829,33.859118 1440.65589,34.7367191 C1441.53349,35.6143231 1442.66512,36.0531178 1444.05081,36.0531178 C1444.26636,36.0531178 1444.45111,36.0377223 1444.60508,36.0069284 C1444.42032,36.4072373 1444.32794,36.7921448 1444.32794,37.1616628 C1444.32794,37.7467322 1444.60508,38.3163943 1445.15935,38.8706697 L1444.62818,38.8706697 L1444.097,38.8706697 C1442.40338,38.8706697 1440.96382,39.3248599 1439.77829,40.2332578 C1438.59276,41.1416528 1438,42.1809035 1438,43.3510393 C1438,44.4287969 1438.61585,45.3063862 1439.84758,45.9838337 C1441.0793,46.6612813 1442.57274,47 1444.32794,47 L1444.32794,47 Z M1444.9515,35.4064665 C1444.16628,35.3756726 1443.44265,34.9830673 1442.7806,34.2286389 C1442.11855,33.4742075 1441.71825,32.573522 1441.57968,31.5265589 C1441.44111,30.4795958 1441.60277,29.6020065 1442.06467,28.8937644 C1442.52656,28.1855224 1443.15781,27.8468042 1443.95843,27.8775982 C1444.75905,27.9083921 1445.49037,28.2932996 1446.15242,29.0323326 C1446.81448,29.7713655 1447.21478,30.6643533 1447.35335,31.7113164 C1447.49192,32.7582795 1447.32256,33.6435695 1446.84527,34.3672041 C1446.36797,35.0908416 1445.73672,35.4372604 1444.9515,35.4064665 L1444.9515,35.4064665 Z M1444.74365,39.4711316 C1445.26713,39.4711316 1445.77521,39.548112 1446.2679,39.7020785 C1446.39107,39.7944573 1446.56813,39.917627 1446.79907,40.0715935 C1447.03002,40.2255601 1447.19169,40.3410321 1447.28406,40.4180153 C1447.37644,40.4949957 1447.51501,40.5950721 1447.69977,40.7182448 C1447.88453,40.8414175 1448.0154,40.9491917 1448.09238,41.0415704 C1448.16936,41.1339492 1448.26174,41.2417234 1448.36951,41.3648961 C1448.47729,41.4880687 1448.56197,41.6112384 1448.62356,41.7344111 C1448.68514,41.8575837 1448.73133,41.9961489 1448.76212,42.1501155 C1448.79292,42.3656669 1448.80831,42.5812153 1448.80831,42.7967667 C1448.80831,44.9214887 1447.31487,45.9838337 1444.32794,45.9838337 C1443.15781,45.9838337 1442.18014,45.6605113 1441.39492,45.0138568 C1440.6097,44.3672023 1440.21709,43.5973875 1440.21709,42.704388 C1440.21709,41.8113885 1440.67128,41.0492711 1441.57968,40.4180153 C1442.48807,39.7867566 1443.54272,39.4711316 1444.74365,39.4711316 L1444.74365,39.4711316 Z M1457.21478,31.3879908 L1457.21478,27 L1455.73672,27 L1455.73672,31.3879908 L1451.30254,31.3879908 L1451.30254,32.8660508 L1455.73672,32.8660508 L1455.73672,37.3464203 L1457.21478,37.3464203 L1457.21478,32.8660508 L1461.64896,32.8660508 L1461.64896,31.3879908 L1457.21478,31.3879908 Z" id="Page-1-Copy-4"></path>
            </g>
        </g>
    </g>
</svg>