<?xml version="1.0" encoding="UTF-8"?>
<svg width="20px" height="20px" viewBox="0 0 20 20" version="1.1" xmlns="http://www.w3.org/2000/svg" xmlns:xlink="http://www.w3.org/1999/xlink">
    <!-- Generator: Sketch 44.1 (41455) - http://www.bohemiancoding.com/sketch -->
    <title>Page 1</title>
    <desc>Created with Sketch.</desc>
    <defs></defs>
    <g id="Symbols" stroke="none" stroke-width="1" fill="none" fill-rule="evenodd" opacity="0.7">
        <g id="Footer-Desktop" transform="translate(-1494.000000, -27.000000)" fill="#FFFFFF">
            <g id="Footer">
                <path d="M1513.10156,27 L1494.89844,27 C1494.66406,27 1494.45573,27.091145 1494.27344,27.2734375 C1494.09114,27.45573 1494,27.6640625 1494,27.8984375 L1494,46.1015625 C1494,46.3359387 1494.09114,46.54427 1494.27344,46.7265625 C1494.45573,46.9088551 1494.66406,47 1494.89844,47 L1513.10156,47 C1513.33594,47 1513.54427,46.9088551 1513.72656,46.7265625 C1513.90885,46.54427 1514,46.3359387 1514,46.1015625 L1514,27.8984375 C1514,27.6640625 1513.90885,27.45573 1513.72656,27.2734375 C1513.54427,27.091145 1513.33594,27 1513.10156,27 L1513.10156,27 Z M1507.47656,37 C1507.47656,37.9635475 1507.13802,38.78385 1506.46094,39.4609375 C1505.78385,40.138025 1504.96355,40.4765625 1504,40.4765625 C1503.03645,40.4765625 1502.21615,40.138025 1501.53906,39.4609375 C1500.86198,38.78385 1500.52344,37.9635475 1500.52344,37 C1500.52344,36.0364525 1500.86198,35.21615 1501.53906,34.5390625 C1502.21615,33.861975 1503.03645,33.5234375 1504,33.5234375 C1504.96355,33.5234375 1505.78385,33.861975 1506.46094,34.5390625 C1507.13802,35.21615 1507.47656,36.0364525 1507.47656,37 L1507.47656,37 Z M1511.5,44.5 L1496.5,44.5 L1496.5,35.75 L1498.14062,35.75 C1498.0625,36.1666675 1498.02344,36.5833325 1498.02344,37 C1498.02344,38.6406325 1498.60937,40.04687 1499.78125,41.21875 C1500.95313,42.39063 1502.35937,42.9765625 1504,42.9765625 C1505.64063,42.9765625 1507.04687,42.39063 1508.21875,41.21875 C1509.39063,40.04687 1509.97656,38.6406325 1509.97656,37 C1509.97656,36.5833325 1509.9375,36.1666675 1509.85938,35.75 L1511.5,35.75 L1511.5,44.5 Z M1511.5,33.25 L1507.75,33.25 L1507.75,29.5 L1511.5,29.5 L1511.5,33.25 Z" id="Page-1"></path>
            </g>
        </g>
    </g>
</svg>