<?xml version="1.0" encoding="UTF-8"?>
<svg width="25px" height="20px" viewBox="0 0 25 20" version="1.1" xmlns="http://www.w3.org/2000/svg" xmlns:xlink="http://www.w3.org/1999/xlink">
    <!-- Generator: Sketch 44.1 (41455) - http://www.bohemiancoding.com/sketch -->
    <title>Page 1 Copy 2</title>
    <desc>Created with Sketch.</desc>
    <defs></defs>
    <g id="Symbols" stroke="none" stroke-width="1" fill="none" fill-rule="evenodd" opacity="0.7">
        <g id="Footer-Desktop" transform="translate(-1269.000000, -27.000000)" fill="#FFFFFF">
            <g id="Footer">
                <path d="M1289.72115,28.5865385 C1288.72756,27.52884 1287.4936,27 1286.01923,27 C1284.64102,27 1283.45513,27.4967908 1282.46154,28.4903846 C1281.46794,29.4839785 1280.97115,30.6698646 1280.97115,32.0480769 C1280.97115,32.4326954 1281.01923,32.8173046 1281.11538,33.2019231 C1279.06409,33.1057692 1277.13302,32.5929538 1275.32211,31.6634615 C1273.51121,30.7339692 1271.98078,29.4839815 1270.73077,27.9134615 C1270.25,28.6826954 1270.00962,29.5320462 1270.00962,30.4615385 C1270.00962,32.2564185 1270.76281,33.6506369 1272.26923,34.6442308 C1271.46794,34.6442308 1270.71475,34.4358985 1270.00962,34.0192308 L1270.00962,34.1153846 C1270.00962,35.3012892 1270.38621,36.3589692 1271.13942,37.2884615 C1271.89263,38.2179538 1272.86217,38.8108954 1274.04808,39.0673077 C1273.59936,39.1634615 1273.15064,39.2115385 1272.70192,39.2115385 C1272.38141,39.2115385 1272.0609,39.1794862 1271.74038,39.1153846 C1272.09295,40.1410308 1272.6939,40.9823692 1273.54327,41.6394215 C1274.39263,42.2964769 1275.36218,42.625 1276.45192,42.625 C1274.62499,44.0673148 1272.54168,44.7884615 1270.20192,44.7884615 C1269.81731,44.7884615 1269.41667,44.772436 1269,44.7403846 C1271.37181,46.2468025 1273.95191,47 1276.74038,47 C1278.98398,47 1281.03525,46.567312 1282.89423,45.7019231 C1284.75322,44.8365342 1286.26762,43.7067385 1287.4375,42.3124985 C1288.60738,40.9182615 1289.51282,39.3798154 1290.15385,37.6971138 C1290.79487,36.0144154 1291.11538,34.3237262 1291.11538,32.625 L1291.11538,32 C1292.10898,31.2628154 1292.9423,30.3814154 1293.61538,29.3557692 C1292.68589,29.7724369 1291.72436,30.0448708 1290.73077,30.1730769 C1291.82052,29.4999969 1292.55769,28.57052 1292.94231,27.3846154 C1291.94871,27.9615415 1290.87501,28.3621785 1289.72115,28.5865385 Z" id="Page-1-Copy-2"></path>
            </g>
        </g>
    </g>
</svg>