<?xml version="1.0" encoding="UTF-8"?>
<svg width="45px" height="45px" viewBox="0 0 45 45" version="1.1" xmlns="http://www.w3.org/2000/svg" xmlns:xlink="http://www.w3.org/1999/xlink">
    <!-- Generator: Sketch 48.1 (47250) - http://www.bohemiancoding.com/sketch -->
    <title>Group 10</title>
    <desc>Created with Sketch.</desc>
    <defs></defs>
    <g id="Bloco-Atendimento-e-Footer" stroke="none" stroke-width="1" fill="none" fill-rule="evenodd" transform="translate(-1166.000000, -138.000000)">
        <g id="Group-4" transform="translate(558.000000, 138.000000)">
            <g id="Group-5" transform="translate(48.000000, 0.000000)">
                <g id="Icon-Chat" transform="translate(560.000000, 0.000000)">
                    <g id="Group-10">
                        <path d="M45,22.5 C45,34.9264286 34.9264286,45 22.5,45 C10.0735714,45 0,34.9264286 0,22.5 C0,10.0735714 10.0735714,0 22.5,0 C34.9264286,0 45,10.0735714 45,22.5" id="Fill-2962" fill="#EF0000"></path>
                        <path d="M13.4421429,29.1192857 C12.7735714,29.1192857 12.2142857,28.545 12.2142857,27.8378571 L12.2142857,15.6385714 C12.2142857,14.9292857 12.7735714,14.355 13.4421429,14.355 L33.225,14.355 C33.8935714,14.355 34.4528571,14.9292857 34.4528571,15.6385714 L34.4528571,27.8292857 C34.4528571,28.5385714 33.8935714,29.1128571 33.225,29.1128571 L21.3621429,29.1128571 C20.9485714,29.1128571 20.6121429,29.4492857 20.6121429,29.8628571 C20.6121429,30.2764286 20.9485714,30.6128571 21.3621429,30.6128571 L33.225,30.6128571 C34.7314286,30.6128571 35.9507143,29.3571429 35.9507143,27.8292857 L35.9507143,15.6385714 C35.9507143,14.1107143 34.7292857,12.8571429 33.225,12.8571429 L13.4421429,12.8571429 C11.9357143,12.8571429 10.7142857,14.1107143 10.7142857,15.6385714 L10.7142857,27.8378571 C10.7142857,29.3657143 11.9357143,30.6192857 13.4421429,30.6192857 L17.4042857,30.6192857 C17.8178571,30.6192857 18.1521429,30.285 18.1521429,29.8692857 C18.1521429,29.4557143 17.8178571,29.1192857 17.4042857,29.1192857 L13.4421429,29.1192857 Z" id="Fill-2964" fill="#FFFFFF"></path>
                        <path d="M18.7521429,31.7187498 C18.4585714,32.0208926 18.6428571,32.1001783 18.6428571,31.6458926 L18.645,29.614464 C18.645,29.2008926 18.3085714,28.864464 17.895,28.8623212 C17.4814286,28.8623212 17.1428571,29.1987498 17.1428571,29.6123212 L17.1428571,31.6458926 C17.1428571,33.4308926 18.5828571,34.0437498 19.8278571,32.764464 L22.3907143,30.1287498 C22.6778571,29.8330355 22.6714286,29.3573212 22.3757143,29.0680355 C22.0778571,28.7808926 21.6042857,28.7873212 21.315,29.0851783 L18.7521429,31.7187498 Z" id="Fill-2966" fill="#FFFFFF"></path>
                    </g>
                </g>
            </g>
        </g>
    </g>
</svg>