<?xml version="1.0" encoding="UTF-8"?>
<svg width="45px" height="45px" viewBox="0 0 45 45" version="1.1" xmlns="http://www.w3.org/2000/svg" xmlns:xlink="http://www.w3.org/1999/xlink">
    <!-- Generator: Sketch 48.1 (47250) - http://www.bohemiancoding.com/sketch -->
    <title>Group 8</title>
    <desc>Created with Sketch.</desc>
    <defs></defs>
    <g id="Bloco-Atendimento-e-Footer" stroke="none" stroke-width="1" fill="none" fill-rule="evenodd" transform="translate(-886.000000, -138.000000)">
        <g id="Group-4" transform="translate(558.000000, 138.000000)">
            <g id="Group-5" transform="translate(48.000000, 0.000000)">
                <g id="Icone-Site" transform="translate(280.000000, 0.000000)">
                    <g id="Group-8">
                        <path d="M45,22.5 C45,34.9264286 34.9264286,45 22.5,45 C10.0735714,45 0,34.9264286 0,22.5 C0,10.0735714 10.0735714,0 22.5,0 C34.9264286,0 45,10.0735714 45,22.5" id="Fill-2885" fill="#EF0000"></path>
                        <path d="M28.5,35.7857143 C28.9135714,35.7857143 29.25,35.4492857 29.25,35.0357143 C29.25,34.62 28.9135714,34.2857143 28.5,34.2857143 L15.75,34.2857143 C15.3364286,34.2857143 15,34.62 15,35.0357143 C15,35.4492857 15.3364286,35.7857143 15.75,35.7857143 L28.5,35.7857143 Z" id="Fill-2887" fill="#FFFFFF"></path>
                        <path d="M35.5714286,15.6707143 C35.5714286,14.1171429 34.275,12.8571429 32.6957143,12.8571429 L11.4471429,12.8571429 C9.86785714,12.8571429 8.57142857,14.1171429 8.57142857,15.6707143 L8.57142857,28.0457143 C8.57142857,29.5992857 9.86785714,30.8571429 11.4471429,30.8571429 L32.6957143,30.8571429 C34.275,30.8571429 35.5714286,29.5992857 35.5714286,28.0457143 L35.5714286,15.6707143 Z M32.6957143,29.3592857 L11.4471429,29.3592857 C10.6864286,29.3592857 10.0714286,28.7614286 10.0714286,28.0457143 L10.0714286,15.6707143 C10.0714286,14.955 10.6864286,14.3571429 11.4471429,14.3571429 L32.6957143,14.3571429 C33.4564286,14.3571429 34.0714286,14.955 34.0714286,15.6707143 L34.0714286,28.0457143 C34.0714286,28.7614286 33.4564286,29.3592857 32.6957143,29.3592857 Z" id="Fill-2889" fill="#FFFFFF"></path>
                    </g>
                </g>
            </g>
        </g>
    </g>
</svg>