<?xml version="1.0" encoding="UTF-8"?>
<svg width="45px" height="45px" viewBox="0 0 45 45" version="1.1" xmlns="http://www.w3.org/2000/svg" xmlns:xlink="http://www.w3.org/1999/xlink">
    <!-- Generator: Sketch 48.1 (47250) - http://www.bohemiancoding.com/sketch -->
    <title>Group 7</title>
    <desc>Created with Sketch.</desc>
    <defs></defs>
    <g id="Bloco-Atendimento-e-Footer" stroke="none" stroke-width="1" fill="none" fill-rule="evenodd" transform="translate(-606.000000, -138.000000)">
        <g id="Group-4" transform="translate(558.000000, 138.000000)">
            <g id="Group-5" transform="translate(48.000000, 0.000000)">
                <g id="Icon-Aplicativo">
                    <g id="Group-7">
                        <path d="M22.5,45 C10.0735714,45 0,34.9264286 0,22.5 C0,10.0735714 10.0735714,0 22.5,0 C34.9264286,0 45,10.0735714 45,22.5 C45,34.9264286 34.9264286,45 22.5,45 Z" id="Fill-2879" fill="#EF0000"></path>
                        <path d="M17.6455078,11 C16.1834598,11 15,12.2223326 15,13.7081362 L15,33.2352232 C15,34.7210268 16.1834598,35.9433594 17.6455078,35.9433594 L28.9833984,35.9433594 C30.4454464,35.9433594 31.6289063,34.7210268 31.6289063,33.2352232 L31.6289063,13.7081362 C31.6289063,12.2223326 30.4454464,11 28.9833984,11 L17.6455078,11 Z M30.1171875,33.2352232 C30.1171875,33.8982199 29.5988839,34.4316406 28.9833984,34.4316406 L17.6455078,34.4316406 C17.0278627,34.4316406 16.5117188,33.8982199 16.5117188,33.2352232 L16.5117188,13.7081362 C16.5117188,13.0451395 17.0278627,12.5117187 17.6455078,12.5117187 L28.9833984,12.5117187 C29.5988839,12.5117187 30.1171875,13.0451395 30.1171875,13.7081362 L30.1171875,33.2352232 Z" id="Fill-2881" fill="#FFFFFF"></path>
                        <path d="M23.5117187,28 C22.6759542,28 22,28.6781138 22,29.5117187 C22,30.3453237 22.6759542,31.0234375 23.5117187,31.0234375 C24.3474833,31.0234375 25.0234375,30.3453237 25.0234375,29.5117187 C25.0234375,28.6781138 24.3474833,28 23.5117187,28 Z" id="Fill-2883" fill="#FFFFFF"></path>
                    </g>
                </g>
            </g>
        </g>
    </g>
</svg>