<?xml version="1.0" encoding="UTF-8"?>
<svg width="34px" height="34px" viewBox="0 0 34 34" version="1.1" xmlns="http://www.w3.org/2000/svg" xmlns:xlink="http://www.w3.org/1999/xlink">
    <!-- Generator: Sketch 48.1 (47250) - http://www.bohemiancoding.com/sketch -->
    <title>Group 9</title>
    <desc>Created with Sketch.</desc>
    <defs></defs>
    <g id="O-que-é-Simulador" stroke="none" stroke-width="1" fill="none" fill-rule="evenodd" transform="translate(-634.000000, -405.000000)" stroke-linejoin="round">
        <g id="Group-2" transform="translate(568.000000, 146.000000)" stroke="#F3123C" stroke-width="1.2">
            <g id="Group" transform="translate(0.000000, 240.000000)">
                <g id="Tab-FAQ">
                    <g id="Page-1" transform="translate(66.000000, 19.000000)">
                        <g id="Group-9">
                            <path d="M9.91114167,14.1666667 C9.91114167,15.3410833 10.8631417,16.2916667 12.0361417,16.2916667 C13.2091417,16.2916667 14.1611417,15.3410833 14.1611417,14.1666667 C14.1611417,12.99225 13.2091417,12.0416667 12.0361417,12.0416667 C10.8631417,12.0416667 9.91114167,11.0910833 9.91114167,9.91666667 C9.91114167,8.74225 10.8631417,7.79166667 12.0361417,7.79166667 C13.2091417,7.79166667 14.1611417,8.74225 14.1611417,9.91666667" id="Stroke-3" stroke-linecap="round"></path>
                            <path d="M23.375,12.0416667 C23.375,18.3005 18.3005,23.375 12.0416667,23.375 C5.78283333,23.375 0.708333333,18.3005 0.708333333,12.0416667 C0.708333333,5.78141667 5.78283333,0.708333333 12.0416667,0.708333333 C18.3005,0.708333333 23.375,5.78141667 23.375,12.0416667 Z" id="Stroke-5"></path>
                            <path d="M20.0699167,20.070625 L33.2916667,33.292375" id="Stroke-7" stroke-linecap="round"></path>
                        </g>
                    </g>
                </g>
            </g>
        </g>
    </g>
</svg>