<?xml version="1.0" encoding="UTF-8"?>
<svg width="35px" height="35px" viewBox="0 0 35 35" version="1.1" xmlns="http://www.w3.org/2000/svg" xmlns:xlink="http://www.w3.org/1999/xlink">
    <!-- Generator: Sketch 48 (47235) - http://www.bohemiancoding.com/sketch -->
    <title>Page 1</title>
    <desc>Created with Sketch.</desc>
    <defs></defs>
    <g id="O-que-é-Simulador" stroke="none" stroke-width="1" fill="none" fill-rule="evenodd" transform="translate(-633.000000, -644.000000)" stroke-linejoin="round">
        <g id="Group-2" transform="translate(568.000000, 146.000000)" stroke="#F3123C">
            <g id="Group" transform="translate(0.000000, 480.000000)">
                <g id="Tab-FAQ">
                    <g id="Page-1" transform="translate(65.000000, 18.000000)">
                        <g id="Group-7">
                            <polygon id="Stroke-1" points="27.271125 15.1159167 29.659875 13.1252917 27.271125 11.1346667 28.714875 8.38133333 25.7471667 7.45675 26.028625 4.35925 22.931125 4.64070833 22.0065417 1.673 19.2546667 3.11675 17.2640417 0.729458333 15.2734167 3.11675 12.5200833 1.673 11.5955 4.64070833 8.498 4.35925 8.77945833 7.45675 5.81175 8.38133333 7.2555 11.1346667 4.86820833 13.1252917 7.2555 15.1159167 5.81175 17.86925 8.77945833 18.7938333 8.498 21.889875 11.5955 21.6084167 12.5200833 24.576125 15.2734167 23.132375 17.2640417 25.521125 19.2546667 23.132375 22.0065417 24.576125 22.931125 21.6084167 26.028625 21.889875 25.7471667 18.7938333 28.714875 17.86925"></polygon>
                            <polyline id="Stroke-3" points="28.8719375 21.3395 33.7981875 29.8692917 28.1836042 28.9184583 26.2352708 34.2705417 22.3604792 27.727"></polyline>
                            <polyline id="Stroke-5" points="5.65395833 21.3395 0.729166667 29.8692917 6.34375 28.9184583 8.29208333 34.2705417 12.166875 27.727"></polyline>
                        </g>
                        <polyline id="Stroke-8" stroke-linecap="round" points="22.0871875 9.2640625 16.3223958 16.9859375 12.4403125 13.1038542"></polyline>
                    </g>
                </g>
            </g>
        </g>
    </g>
</svg>