<?xml version="1.0" encoding="UTF-8"?>
<svg width="35px" height="31px" viewBox="0 0 35 31" version="1.1" xmlns="http://www.w3.org/2000/svg" xmlns:xlink="http://www.w3.org/1999/xlink">
    <!-- Generator: Sketch 48 (47235) - http://www.bohemiancoding.com/sketch -->
    <title>Page 1</title>
    <desc>Created with Sketch.</desc>
    <defs>
        <polygon id="path-1" points="0 31.0874375 35 31.0874375 35 0.000145833333 0 0.000145833333"></polygon>
    </defs>
    <g id="O-que-é-Simulador" stroke="none" stroke-width="1" fill="none" fill-rule="evenodd" transform="translate(-633.000000, -287.000000)">
        <g id="Page-1" transform="translate(633.000000, 287.000000)">
            <path d="M29.1666667,20.8791042 C30.3741667,20.8791042 31.3541667,21.8591042 31.3541667,23.0666042 C31.3541667,24.2755625 30.3741667,25.2541042 29.1666667,25.2541042 L27.7083333,25.2541042 C28.9158333,25.2541042 29.8958333,26.2341042 29.8958333,27.4416042 C29.8958333,28.6505625 28.9158333,28.8999375 27.7083333,28.8999375 L18.2291667,28.8999375 C14.0714583,28.8999375 13.125,28.1707708 8.02083333,27.4416042 L8.02083333,15.0457708 C11.59375,15.0457708 17.5,8.48327083 17.5,2.6499375 C17.5,0.3443125 20.6922917,-0.514645833 21.875,3.69847917 C22.6041667,6.29577083 20.4166667,11.3999375 20.4166667,11.3999375 L32.0833333,11.3999375 C33.2908333,11.3999375 34.2708333,12.3799375 34.2708333,13.5874375 C34.2708333,14.7963958 33.2908333,16.5041042 32.0833333,16.5041042 L30.625,16.5041042 C31.8325,16.5041042 32.8125,17.4841042 32.8125,18.6916042 C32.8125,19.9005625 31.8325,20.8791042 30.625,20.8791042 L29.1666667,20.8791042 Z" id="Stroke-1" stroke="#F3123C" stroke-linecap="round" stroke-linejoin="round"></path>
            <mask id="mask-2" fill="white">
                <use xlink:href="#path-1"></use>
            </mask>
            <g id="Clip-4"></g>
            <polygon id="Stroke-3" stroke="#F3123C" stroke-linecap="round" stroke-linejoin="round" mask="url(#mask-2)" points="0.729166667 30.3582708 8.02083333 30.3582708 8.02083333 12.8582708 0.729166667 12.8582708"></polygon>
            <path d="M5.10416667,26.7124375 C4.70166667,26.7124375 4.375,27.0391042 4.375,27.4416042 C4.375,27.8441042 4.70166667,28.1707708 5.10416667,28.1707708 C5.50666667,28.1707708 5.83333333,27.8441042 5.83333333,27.4416042 C5.83333333,27.0391042 5.50666667,26.7124375 5.10416667,26.7124375" id="Fill-5" fill="#F3123C" mask="url(#mask-2)"></path>
        </g>
    </g>
</svg>