<?xml version="1.0" encoding="UTF-8"?>
<svg width="35px" height="33px" viewBox="0 0 35 33" version="1.1" xmlns="http://www.w3.org/2000/svg" xmlns:xlink="http://www.w3.org/1999/xlink">
    <!-- Generator: Sketch 48 (47235) - http://www.bohemiancoding.com/sketch -->
    <title>Page 1</title>
    <desc>Created with Sketch.</desc>
    <defs></defs>
    <g id="O-que-é-Simulador" stroke="none" stroke-width="1" fill="none" fill-rule="evenodd" transform="translate(-636.000000, -526.000000)" stroke-linejoin="round">
        <g id="Page-1" transform="translate(636.000000, 526.000000)" stroke="#F3123C">
            <path d="M12.7493333,24.7005208 C10.4714167,26.9784375 6.77745833,26.9784375 4.501,24.7005208 L2.43745833,22.6398958 C0.159541667,20.3605208 0.159541667,16.6665625 2.43745833,14.3901042 L9.65620833,7.17135417 C11.9326667,4.8934375 15.6280833,4.8934375 17.9045417,7.17135417 L19.9680833,9.23489583 C22.246,11.5113542 22.246,15.2053125 19.9680833,17.4832292 L12.7493333,24.7005208 Z" id="Stroke-1"></path>
            <path d="M15.3269375,5.62391667 L6.56235417,14.3899583 C5.42339583,15.5289167 5.42339583,17.376625 6.56235417,18.514125 L8.6244375,20.5776667 C9.76485417,21.7151667 11.6096458,21.7151667 12.7500625,20.5776667 L21.5146458,11.811625" id="Stroke-3"></path>
            <polygon id="Stroke-5" points="10.6871042 18.5139792 8.62502083 16.4518958 10.6871042 14.3898125 12.7491875 16.4518958"></polygon>
            <polygon id="Stroke-7" points="14.8114167 14.3896667 12.7493333 12.3275833 14.8114167 10.2655 16.8735 12.3275833"></polygon>
            <path d="M26.3940833,5.10416667 C26.3940833,7.520625 24.4340833,9.47916667 22.0190833,9.47916667 C19.602625,9.47916667 17.6440833,7.520625 17.6440833,5.10416667 C17.6440833,2.68916667 19.602625,0.729166667 22.0190833,0.729166667 C24.4340833,0.729166667 26.3940833,2.68916667 26.3940833,5.10416667 Z" id="Stroke-9"></path>
            <path d="M32.2274167,8.02083333 C32.2274167,10.4372917 30.2674167,12.3958333 27.8524167,12.3958333 C25.4359583,12.3958333 23.4774167,10.4372917 23.4774167,8.02083333 C23.4774167,5.60583333 25.4359583,3.64583333 27.8524167,3.64583333 C30.2674167,3.64583333 32.2274167,5.60583333 32.2274167,8.02083333 Z" id="Stroke-11"></path>
            <path d="M24.93575,18.2291667 C24.93575,16.6191667 26.2409583,15.3125 27.8524167,15.3125 L30.7690833,15.3125 C32.3790833,15.3125 33.68575,16.6191667 33.68575,18.2291667 L33.68575,22.6041667 L24.93575,22.6041667 L24.93575,18.2291667 Z" id="Stroke-13"></path>
            <polygon id="Stroke-15" points="30.7690833 22.6041667 27.8524167 22.6041667 27.8524167 29.8958333 29.372 32.8125 30.7690833 29.8958333"></polygon>
            <path d="M29.31075,17.5 L29.31075,10.2083333" id="Stroke-17" stroke-linecap="round"></path>
        </g>
    </g>
</svg>