<?xml version="1.0" encoding="UTF-8"?>
<svg width="98px" height="31px" viewBox="0 0 98 31" version="1.1" xmlns="http://www.w3.org/2000/svg" xmlns:xlink="http://www.w3.org/1999/xlink">
    <!-- Generator: Sketch 48.2 (47327) - http://www.bohemiancoding.com/sketch -->
    <title>Banco_Santander_Logotipo</title>
    <desc>Created with Sketch.</desc>
    <defs></defs>
    <g id="Header-Internas" stroke="none" stroke-width="1" fill="none" fill-rule="evenodd" transform="translate(-1418.000000, -26.000000)">
        <g id="Banco_Santander_Logotipo" transform="translate(1418.000000, 26.000000)" fill-rule="nonzero">
            <polygon id="path3004" fill="#FE0000" points="0.0207331351 0.0400976622 97.126136 0.0400976622 97.126136 30.9982079 0.0207331351 30.9982079"></polygon>
            <path d="M18.4324324,4.90135135 C18.3778238,5.38369376 18.4006715,5.90090739 18.5394059,6.31854442 C18.7262356,6.88096443 18.984661,7.28643103 19.9362387,8.52441435 C20.9403354,9.83072419 21.2616812,10.3042144 21.500639,10.9816356 C21.6959828,11.5354154 21.7,11.8554054 21.6162162,12.3581081 C22.4959459,12.5256757 23.9378636,12.9928247 24.9043552,13.5723873 C25.8008291,14.1237181 26.4525958,14.8385882 26.6913062,15.5321424 C26.8325196,15.942427 26.8267486,16.5783622 26.6769059,16.9761035 C26.5330014,17.3580826 26.3357211,17.6770064 26.0446001,17.9959093 C24.887567,19.2633585 22.5965133,20.1737866 19.8367454,20.4636035 C19.2262859,20.5277107 17.7302523,20.5733192 17.2171931,20.54346 C13.5306316,20.3289056 10.5661284,19.0551939 9.72247177,17.3243299 C9.37161628,16.604507 9.38018108,15.9848098 9.74996332,15.2729363 C10.0548634,14.6859689 10.8905937,13.9605618 11.8733586,13.4283839 C12.8187983,12.9732151 13.7064108,12.6331011 14.6578603,12.3653772 C14.7040541,12.9864865 15.9145255,14.4710824 16.3152083,14.9967116 C17.1888955,16.1403653 17.534509,16.685835 17.7814245,17.1227252 C17.9297297,17.3851351 18.0135135,17.5527027 17.9716216,18.0522015 C17.9716216,18.0522015 18.3078246,17.7478117 18.4346762,17.4892792 C18.5988069,17.1547691 18.6573567,16.8152927 18.6258079,16.3791441 C18.5878061,15.8537896 18.4985638,15.5318814 18.2474718,15.0176576 C18.0033455,14.5176988 17.6534426,14.0119497 16.9880968,13.1953603 C16.0486321,12.0423409 15.7007526,11.4089195 15.5572268,10.5862809 C15.3979124,9.67314784 15.654553,8.70261534 16.1803687,8.22986199 C16.2947801,8.12699603 16.4788485,8.02694814 16.4788485,8.02694814 C16.4788485,8.02694814 16.463139,8.26224986 16.463139,8.52965084 C16.463139,9.09519473 16.5276538,9.38963273 16.7446001,9.82044476 C17.0140052,10.3554285 17.3868925,10.8555419 18.530242,12.2161373 C19.5421306,13.4202934 19.8563822,14.0320474 19.8563822,14.796416 C19.8563822,14.9758993 19.8567551,15.1648649 19.8567551,15.1648649 C19.8567551,15.1648649 20.1240522,14.9609774 20.2478079,14.774161 C20.6400911,14.1819877 20.7022185,13.2582501 20.4035934,12.4399971 C20.1988845,11.8790814 19.8671489,11.3686153 18.8863214,10.1359431 C17.8878378,8.88108108 17.4689172,7.87567568 17.4689172,7.03783784 C17.4689172,6.2 17.6508063,5.40069265 18.4324308,4.90135135 L18.4324324,4.90135135 Z" id="path2996" fill="#FFFFFF"></path>
            <path d="M37.1896284,17.2385135 C37.212214,16.9586313 37.1908726,16.6832449 37.1602936,16.5362973 C37.0401045,15.9587414 36.6139613,15.3783577 35.9968464,14.9517466 C35.8097568,14.8224116 35.2477503,14.5312211 34.6665204,14.2624691 C33.5017771,13.723909 33.1747631,13.529725 32.8849391,13.2045497 C32.600956,12.8859284 32.496021,12.6030148 32.493296,12.1486486 C32.4914821,11.8461917 32.5085203,11.7547153 32.606438,11.5412162 C32.9231047,10.8507557 33.7143592,10.4834426 34.6341216,10.5999326 C35.1765299,10.6686299 35.4606755,10.7898135 35.7802511,11.088739 C36.1144826,11.4013735 36.2846282,11.7635067 36.3766547,12.3581081 L36.4040541,12.6932432 L36.9067568,12.6932432 L36.8648649,10.3891892 L36.6972973,10.3472973 C36.5707117,10.3156509 35.7358285,10.1568471 35.2939189,10.1010982 C34.6340047,10.0178469 34.3665434,10.0080283 33.9782986,10.0528006 C33.2258628,10.1395717 32.6035232,10.4251337 32.1339733,10.8990738 C31.6557422,11.3817761 31.4236615,11.8940699 31.3875968,12.5466216 C31.3506075,13.2159083 31.5642901,13.7701891 32.0424596,14.2453001 C32.4438049,14.6440779 32.6149722,14.7471667 33.8553421,15.3371423 C35.4427168,16.0921691 35.8018749,16.3152321 36.0426049,16.8824324 C36.2515026,17.3746303 36.2667291,17.9274244 36.0504186,18.3695946 C35.4976283,19.4995794 33.7579615,19.7942788 32.6750368,18.94263 C32.2706925,18.62464 31.9742755,18.142874 31.8778475,17.6469595 L31.8269371,17.3851351 L31.397973,17.3850514 L31.4744324,19.5911157 C31.4744324,19.5911157 32.2989168,19.8126894 32.6833008,19.8535767 C32.9738052,19.8844779 33.2632622,19.9405405 33.5554054,19.9405405 C34.1418919,19.9405405 34.413684,20.0175106 35.0216216,19.8148649 C35.65,19.6054054 37.0324324,19.1864865 37.1896284,17.2385135 Z" id="path3010" fill="#FFFFFF"></path>
            <path d="M41.0540541,13.6148649 C41.7243243,13.6148649 42.3108108,13.9081081 42.5892792,14.3408417 C42.8525651,14.7499822 42.8554054,15.1015566 42.8554054,15.3324324 L42.8554054,18.5162162 C42.8554054,18.8932432 43.1286327,19.0146971 43.5226829,18.8821846 L43.8189189,18.7675676 L43.8189189,19.1864865 L42.3523282,19.8273704 C42.1821461,19.9031751 42.065752,19.7298381 41.984465,19.4097606 L41.8918919,19.1027027 L41.6480208,19.2932488 C41.3027675,19.5630087 40.8445946,19.8148649 40.1743243,19.8148649 C39.5416156,19.8175669 39.127027,19.7310811 38.7155883,19.0746255 C38.5229334,18.6953426 38.5021563,18.1853587 38.6645326,17.8178687 C38.8527914,17.3918006 39.2257909,17.1732966 40.7918552,16.5676576 L41.85,16.1702703 L41.85,15.877027 C41.85,14.7878378 41.5567568,14.4527027 41.1797297,14.2432432 C40.8764907,14.0747771 40.4740688,14.1183576 40.0905405,14.3689189 C39.7734252,14.5760919 39.6771472,14.9255499 39.8401238,15.2847184 C39.9658816,15.5618643 39.9225985,15.4749105 39.9225985,15.4837049 L39.0625056,15.9379701 C39.0625056,15.9379701 38.9138945,15.6832841 38.8713738,15.5439245 C38.6738012,14.8963906 38.9274448,14.5312085 39.8990343,13.9965427 C40.4070434,13.7169856 40.7057632,13.6148649 41.0540541,13.6148649 Z M41.85,16.6310811 C41.85,16.6310811 40.4713956,17.2130558 40.2066779,17.3478941 C39.9950111,17.4557104 39.7523779,17.6478882 39.6716216,17.8040541 C39.5664776,18.0073801 39.5839666,18.3789449 39.7135135,18.6 C39.8350943,18.8074616 39.9822412,18.9768984 40.1743243,19.0608108 C40.2434459,19.0910069 40.4738514,19.1437107 40.6351351,19.1445946 C40.9620498,19.1463876 41.3067196,19.009533 41.6584937,18.7172353 L41.85,18.5581081 L41.85,16.6310811 Z" id="path3798" fill="#FFFFFF"></path>
            <path d="M46.1648649,13.6148649 L46.1648649,14.7420186 L46.4528716,14.4697213 C47.0770273,13.8796124 47.672973,13.6148649 48.1337838,13.6148649 C49.1810811,13.6148649 50.1445946,14.5364865 50.1027027,15.8351351 C50.1027027,15.8351351 50.1027027,17.2776376 50.1027027,18.8513514 C50.1027027,19.1864865 50.1864865,19.3959459 50.5216216,19.3959459 L51.0662162,19.3959459 L51.0662162,19.8148649 L48.1756757,19.8148649 L48.1756757,19.3959459 L48.5945946,19.3959459 C48.9297297,19.3959459 49.0554054,19.1864865 49.0554054,18.8513514 L49.0554054,15.8351351 C49.0554054,15.2067568 48.8248408,14.8924088 48.6364865,14.7040541 C48.3851351,14.4527027 48.079538,14.3820307 47.6310811,14.4108108 C47.282595,14.4331752 46.9256007,14.6174602 46.5157095,14.9488598 L46.2486486,15.1648649 L46.2486486,19.0608108 C46.2486486,19.2702703 46.3324324,19.3959459 46.5418919,19.3959459 L47.0864865,19.3959459 L47.0864865,19.8148649 L44.2378295,19.8148649 L44.2378378,19.3959459 L44.6148649,19.3959459 C44.95,19.3959459 45.2013514,19.1864865 45.2013514,18.8513514 L45.2013514,15.6256757 C45.2013514,14.7878378 44.95,14.5364865 44.2378378,14.9135135 L44.2378295,14.4657939 C44.6986486,14.327027 45.5364865,13.9081081 45.9972973,13.6148649 L46.1648649,13.6148649 Z" id="path3812" fill="#FFFFFF"></path>
            <path d="M54.25,19.8148649 C54.627027,19.8148649 54.7155827,19.772973 55.0668919,19.4765225 L55.7581081,18.8932432 L55.5905405,18.6 L55.2823419,18.7642292 C54.8221222,19.0094656 54.4594595,19.0608108 53.9986486,18.8513514 C53.6060043,18.6728768 53.3702703,18.0554054 53.3702703,17.7202703 L53.3702703,14.3285712 L55.2972973,14.3270254 L55.5067568,13.7405405 L53.3702703,13.7405389 L53.3702703,11.8135118 L53.1608108,11.8135135 C52.6581081,12.7351351 51.9040541,13.6148649 50.9824324,14.1594595 L50.9824324,14.327027 L52.322973,14.3270254 L52.322973,17.7202703 C52.322973,18.5162162 52.6162162,19.1027027 53.077027,19.4378378 C53.5142724,19.7558346 53.7891892,19.8148649 54.25,19.8148649 Z" id="path3825" fill="#FFFFFF"></path>
            <path d="M58.6905489,13.6148649 C59.3608192,13.6148649 59.9473057,13.9081081 60.2257741,14.3408417 C60.48906,14.7499822 60.4919003,15.1015566 60.4919003,15.3324324 L60.4919003,18.5162162 C60.4919003,18.8932432 60.7651225,19.0146971 61.1591694,18.8821846 L61.4554037,18.7675676 L61.4554037,19.1864865 L59.9888231,19.8273704 C59.818641,19.9031751 59.7022469,19.7298381 59.6209599,19.4097606 L59.5283868,19.1027027 L59.2845156,19.2932488 C58.9392623,19.5630087 58.4810895,19.8148649 57.8108192,19.8148649 C57.1781104,19.8175669 56.7635219,19.7310811 56.3520832,19.0746255 C56.1594282,18.6953426 56.1386511,18.1853587 56.3010274,17.8178687 C56.4892863,17.3918006 56.8622858,17.1732966 58.4283501,16.5676576 L59.4864949,16.1702703 L59.4864949,15.877027 C59.4864949,14.7878378 59.1932516,14.4527027 58.8162246,14.2432432 C58.5129855,14.0747771 58.1105636,14.1183576 57.7270354,14.3689189 C57.4099201,14.5760919 57.313642,14.9255499 57.4766187,15.2847184 C57.6023764,15.5618643 57.5590933,15.4749105 57.5590933,15.4837049 L56.6990004,15.9379701 C56.6990004,15.9379701 56.5503894,15.6832841 56.5078687,15.5439245 C56.310296,14.8963906 56.5639397,14.5312085 57.5355291,13.9965427 C58.0435383,13.7169856 58.3422581,13.6148649 58.6905489,13.6148649 Z M59.4864949,16.6310811 C59.4864949,16.6310811 58.1078905,17.2130558 57.8431727,17.3478941 C57.631506,17.4557104 57.3888727,17.6478882 57.3081165,17.8040541 C57.2029724,18.0073801 57.2204615,18.3789449 57.3500084,18.6 C57.4715891,18.8074616 57.6187361,18.9768984 57.8108192,19.0608108 C57.8799408,19.0910069 58.1103462,19.1437107 58.27163,19.1445946 C58.5985447,19.1463876 58.9432144,19.009533 59.2949886,18.7172353 L59.4864949,18.5581081 L59.4864949,16.6310811 Z" id="path3810" fill="#FFFFFF"></path>
            <path d="M63.8013497,13.6148649 L63.8013497,14.7420186 L64.0893564,14.4697213 C64.7135121,13.8796124 65.3094578,13.6148649 65.7702686,13.6148649 C66.8175659,13.6148649 67.7810794,14.5364865 67.7391875,15.8351351 C67.7391875,15.8351351 67.7391875,17.2776376 67.7391875,18.8513514 C67.7391875,19.1864865 67.8229713,19.3959459 68.1581064,19.3959459 L68.702701,19.3959459 L68.702701,19.8148649 L65.8121605,19.8148649 L65.8121605,19.3959459 L66.2310794,19.3959459 C66.5662145,19.3959459 66.6918902,19.1864865 66.6918902,18.8513514 L66.6918902,15.8351351 C66.6918902,15.2067568 66.4613256,14.8924088 66.2729713,14.7040541 C66.0216199,14.4527027 65.7160228,14.3820307 65.2675659,14.4108108 C64.9190798,14.4331752 64.5620855,14.6174602 64.1521943,14.9488598 L63.8851335,15.1648649 L63.8851335,19.0608108 C63.8851335,19.2702703 63.9689172,19.3959459 64.1783767,19.3959459 L64.7229713,19.3959459 L64.7229713,19.8148649 L61.8743143,19.8148649 L61.8743226,19.3959459 L62.2513497,19.3959459 C62.5864848,19.3959459 62.8378362,19.1864865 62.8378362,18.8513514 L62.8378362,15.6256757 C62.8378362,14.7878378 62.5864848,14.5364865 61.8743226,14.9135135 L61.8743143,14.4657939 C62.3351335,14.327027 63.1729713,13.9081081 63.6337821,13.6148649 L63.8013497,13.6148649 Z" id="path3823" fill="#FFFFFF"></path>
            <path d="M76.2432416,19.1027027 L76.2432416,18.6837838 C75.7824308,18.8932432 75.5729713,18.8932432 75.4153279,18.7865601 C75.1896898,18.6338641 75.1959443,18.3486486 75.1959443,18.3486486 L75.1959443,9.13243243 L75.0702686,9.13243243 C74.463896,9.51690951 73.7297322,9.88648649 73.1013497,10.0959459 L73.1013497,10.5567568 C73.4364848,10.4310811 73.687346,10.3647294 73.8972956,10.472973 C74.0346005,10.5485874 74.1067551,10.6405405 74.1067551,10.85 L74.1067551,12.3909886 L74.1067551,13.9821529 L73.8608078,13.8828104 C73.3671663,13.6834197 73.1122709,13.6371111 72.5148632,13.6382833 C72.0149044,13.6392635 71.9103548,13.6524046 71.6133036,13.7515975 C70.2357348,14.2116019 69.3543964,15.557115 69.426949,17.0894429 C69.4684471,17.9659306 69.7221947,18.6539672 70.2945929,19.1445946 C70.8810794,19.6472973 71.3837821,19.8148649 71.9702686,19.8148649 C72.7662145,19.8148649 73.2274066,19.655976 73.804149,19.2646459 C73.9810794,19.1445946 74.148647,19.0189189 74.148647,19.0189189 C74.1905389,19.4378378 74.2928012,19.6891892 74.4418902,19.8986486 L76.2432416,19.1027027 Z M71.9003301,19.0276525 C71.1177141,18.7480874 70.5488767,17.7830071 70.4753941,16.6101351 C70.3835378,15.1439893 71.196186,14.1175676 72.4488332,14.1175676 C72.975209,14.1175676 73.3794029,14.261793 73.8662998,14.6233518 L74.1075971,14.802536 L74.0858091,18.5674487 L73.8171229,18.7299034 C73.3603589,19.0060757 73.1398483,19.0710668 72.598647,19.0890258 C72.207251,19.1020136 72.0762718,19.0905004 71.9003301,19.0276525 Z" id="path3830" fill="#FFFFFF"></path>
            <path d="M80.7466199,19.752071 C81.094817,19.6597727 81.5635118,19.4797297 82.1081064,19.1445946 L82.1081064,18.7256757 C81.6472956,19.0608108 80.9169733,19.2691375 80.2648632,19.2702703 C79.5572086,19.2714977 79.0081064,19.0608108 78.6310794,18.6418919 C78.0748179,18.0238202 77.9189172,17.5108108 77.8227335,16.2540545 L82.2337821,16.2540541 C82.2337821,16.2540541 82.2337821,15.6256757 81.9824308,15.0391892 C81.8101462,14.6371879 81.6472956,14.327027 81.1864848,14.0337838 C80.7550737,13.7592495 80.1724622,13.6427695 79.6783767,13.6395991 C79.1644554,13.6363022 79.0847895,13.6462071 78.8055759,13.748128 C77.5014143,14.2241816 76.6137754,15.5749245 76.7226231,16.9178168 C76.8279225,18.2169267 77.5869072,19.2585611 78.7328264,19.6766296 C79.2400116,19.8616682 80.1977985,19.897549 80.7466199,19.752071 Z M78.3378362,14.5783784 C78.6310794,14.2851351 78.9662145,14.1175676 79.5108091,14.1175676 C80.0135118,14.1175676 80.348647,14.2432432 80.6837821,14.5783784 C80.9351335,14.8297297 81.0608091,15.0391892 81.1144224,15.7513518 L77.8237472,15.7513518 C77.8770254,15.2486486 78.0445929,14.8716216 78.3378362,14.5783784 Z" id="path3835" fill="#FFFFFF"></path>
            <path d="M84.7054037,13.6148649 L84.7054037,14.9972973 C84.9258472,14.6180043 85.1243226,14.3689189 85.5013497,13.9918919 C85.7922595,13.7009858 86.1716199,13.6148649 86.4648632,13.6148649 C86.6743226,13.6148649 87.2189172,13.7824324 87.2189172,13.7824324 L87.2189172,15.0391892 L87.0094578,15.0391892 C86.925674,14.7040541 86.6324308,14.5364865 86.2135118,14.5364865 C85.6689172,14.5364865 85.3128362,14.7564189 85.0929037,15.0863176 C84.8729755,15.4162162 84.7891875,15.5837838 84.7891875,16.2959459 L84.7891875,19.0608108 C84.7891875,19.2702703 84.8729713,19.3959459 85.0824308,19.3959459 L85.6270254,19.3959459 L85.6270254,19.8148649 L82.7783767,19.8148649 L82.7783767,19.3959459 L83.1554037,19.3959459 C83.4905389,19.3959459 83.7418902,19.1864865 83.7418902,18.8513514 L83.7418902,15.6256757 C83.7418902,14.7040541 83.4067551,14.7459459 82.8202686,14.9972973 L82.8202686,14.5783784 C83.3648632,14.3689189 84.0351335,14.0756757 84.5378362,13.6148649 L84.7054037,13.6148649 Z" id="path3842" fill="#FFFFFF"></path>
        </g>
    </g>
</svg>