<?xml version="1.0" encoding="UTF-8"?>
<svg width="170px" height="31px" viewBox="0 0 170 31" version="1.1" xmlns="http://www.w3.org/2000/svg" xmlns:xlink="http://www.w3.org/1999/xlink">
    <!-- Generator: Sketch 48 (47235) - http://www.bohemiancoding.com/sketch -->
    <title>Group 16</title>
    <desc>Created with Sketch.</desc>
    <defs></defs>
    <g id="Header-3" stroke="none" stroke-width="1" fill="none" fill-rule="evenodd" transform="translate(-403.000000, -25.000000)">
        <g id="Group-16" transform="translate(403.000000, 25.000000)">
            <path d="M16,0 C7.16341359,0 0,6.93955692 0,15.5 C0,24.0604431 7.16341359,31 16,31 C24.8365864,31 32,24.0604431 32,15.5 C32,6.93955692 24.8365864,0 16,0 Z" id="Fill-5" fill="#FFFFFF"></path>
            <path d="M21.8207162,9.12021858 L21.8207162,13.7621629 C21.8207162,14.1032522 21.5517085,14.3800018 21.2198966,14.3800018 L17.1905687,14.3800018 C16.8585424,14.3800018 16.5895347,14.1032522 16.5895347,13.7621629 L16.5895347,9.12021858 C16.5895347,8.50414243 16.0993191,8 15.5,8 C14.9006809,8 14.4104653,8.50414243 14.4104653,9.12021858 L14.4104653,13.7621629 C14.4104653,14.1032522 14.1414576,14.3800018 13.8094313,14.3800018 L9.78010339,14.3800018 C9.44829151,14.3800018 9.17928382,14.1032522 9.17928382,13.7621629 L9.17928382,9.12021858 C9.17928382,8.50414243 8.68885386,8 8.08953474,8 C7.49042996,8 7,8.50414243 7,9.12021858 L7,21.8800018 C7,22.4958576 7.49042996,23 8.08953474,23 C8.68885386,23 9.17928382,22.4958576 9.17928382,21.8800018 L9.17928382,17.2380575 C9.17928382,16.8967478 9.44829151,16.6199982 9.78031774,16.6199982 L13.809217,16.6199982 C14.1412432,16.6199982 14.4104653,16.8967478 14.4104653,17.2380575 L14.4104653,21.8800018 C14.4104653,22.4958576 14.9006809,23 15.5,23 C16.0993191,23 16.5895347,22.4958576 16.5895347,21.8800018 L16.5895347,17.2380575 C16.5895347,16.8967478 16.8587568,16.6199982 17.1905687,16.6199982 L21.2196823,16.6199982 C21.5517085,16.6199982 21.8207162,16.8967478 21.8207162,17.2380575 L21.8207162,21.8800018 C21.8207162,22.4958576 22.3111461,23 22.9102509,23 C23.50957,23 24,22.4958576 24,21.8800018 L24,9.12021858 C24,8.50414243 23.50957,8 22.9102509,8 C22.3111461,8 21.8207162,8.50414243 21.8207162,9.12021858 Z" id="Fill-6" fill="#4D4D5B"></path>
            <path d="M158.689882,9.58985338 C158.689882,8.91643556 158.14642,8.36543686 157.482114,8.36543686 L157.481444,8.36566231 C157.076249,8.32913948 155.945097,8.3688186 155.945097,8.3688186 C150.82275,8.58479927 150.404153,10.3383459 150.442126,15.2010673 L150.443913,23.7521433 C150.443913,24.4255611 150.987375,24.9765598 151.651681,24.9765598 L152.860565,24.973629 C153.524871,24.973629 154.068333,24.4226303 154.068333,23.7492125 C154.068333,23.7492125 154.067216,15.3234864 154.067216,15.3155956 C154.038625,12.8717225 154.108093,11.7800958 155.895732,11.7800958 L157.482114,11.7800958 C158.14642,11.7800958 158.689882,11.2290971 158.689882,10.5556793 L158.689882,9.58985338 L158.689882,9.58985338 Z M133.019177,21.6689895 C132.60058,21.6703422 131.763608,21.677782 131.345234,21.6689895 C129.804867,21.6360738 129.487233,19.8635895 129.486116,18.4531771 C129.484776,16.9902349 129.487456,12.321851 129.487456,12.321851 L132.912629,12.321851 C133.576935,12.321851 134.120397,11.7708523 134.120397,11.0974345 L134.120397,10.3336114 C134.120397,9.66019364 133.576935,9.10919493 132.912629,9.10919493 L129.484329,9.10919493 L129.481202,7.17619047 L129.481202,4.5492523 C129.481202,3.87583448 128.93774,3.32483578 128.273658,3.32483578 L127.057178,3.32483578 C126.392873,3.32483578 125.849411,3.87583448 125.849411,4.5492523 C125.849411,4.5492523 125.855218,14.6466868 125.859686,18.0124232 C125.86527,22.0511265 126.772827,24.872853 131.183513,24.9675419 C131.642318,24.9774616 133.019177,24.9679928 133.019177,24.9679928 C133.68326,24.9679928 134.226722,24.4185722 134.226722,23.7451544 L134.226722,22.893406 C134.226722,22.2199882 133.68326,21.6665095 133.019177,21.6689895 L133.019177,21.6689895 Z M103.038304,8.35033174 C102.797509,8.35033174 94.9377493,8.36678956 94.9306014,8.36678956 C92.1724146,8.36678956 88.8803708,9.42211891 88.8039779,14.2640989 L88.83592,23.751467 C88.83592,24.4248848 89.3793819,24.9758835 90.0436877,24.9758835 L91.2483282,24.9738544 C91.912634,24.9738544 92.456096,24.4228557 92.456096,23.7494379 L92.4426937,14.1234184 C92.4406834,13.5613727 92.5003235,12.7508815 93.0379778,12.2039409 C93.3976053,11.8380363 93.9249846,11.651815 94.6047029,11.6495605 L95.842179,11.6520404 C95.842179,11.6520404 96.8964908,11.651815 96.9789147,12.7977751 L96.9894132,23.7525942 C96.9894132,24.426012 97.5328751,24.9770107 98.1971809,24.9770107 L99.4058421,24.9758835 C100.056746,24.9758835 100.590379,24.4463025 100.6116,23.7911461 C100.623885,23.7474089 100.599761,12.9064417 100.599761,12.8257308 C100.599761,12.0995578 101.225423,11.6495605 101.795913,11.6495605 L103.044335,11.6536186 C104.975155,11.6536186 105.131961,13.6481708 105.133972,14.2595899 L105.165243,23.7512415 C105.165243,24.4246593 105.708705,24.975658 106.373011,24.975658 L107.583459,24.9758835 C108.247765,24.9758835 108.791227,24.4248848 108.791227,23.751467 L108.789217,14.0201625 C108.782292,10.4914261 106.632568,8.35033174 103.038304,8.35033174 L103.038304,8.35033174 Z M167.883391,16.5578227 C165.604559,14.6491668 161.938368,14.033464 163.132734,12.1383351 C163.503306,11.5503627 164.267906,11.524436 165.087678,11.5663696 C165.602102,11.5927472 166.08771,11.7298205 166.516806,11.9088275 C167.272918,12.2765357 167.772822,12.6850503 167.823081,12.7206713 C167.888082,12.7662121 167.961794,12.7980005 168.038857,12.8232508 C168.460805,12.9605496 169.027051,12.7991277 169.338431,12.4034638 C169.437607,12.277212 169.636408,12.0247085 169.735808,11.8982313 C170.113082,11.4189256 170.080916,10.7299518 169.673711,10.299794 C169.599328,10.2213376 169.524722,10.1480665 169.449446,10.0784026 C169.37149,10.0067096 168.826017,9.57407191 168.738456,9.51072058 L168.737116,9.51117148 C166.964666,8.30794722 165.031612,8.30749633 164.84465,8.31155442 C161.475767,8.38076743 159.35106,9.96455053 159.35106,13.0822924 C159.35106,13.8298831 159.832202,15.378947 162.130244,16.6558932 C164.86118,18.1736196 167.127056,19.5454801 166.399983,20.953638 C166.095528,21.5436395 165.178143,21.7835178 164.358371,21.7415842 C163.694289,21.7075413 163.079125,21.4890807 162.570732,21.2340973 C161.954674,20.9047155 161.649549,20.629667 161.438017,20.509277 C161.014282,20.2682714 160.345285,20.4233807 159.99705,20.8659382 C159.89765,20.9921899 159.699073,21.2446934 159.599672,21.3709452 C159.315544,21.7318899 159.263946,22.2114211 159.429464,22.6100159 C159.483743,22.7410021 159.561029,22.8631957 159.66177,22.9696079 C159.963544,23.2883936 160.273583,23.5248902 160.597025,23.7586814 L160.602385,23.7566523 C162.432465,25.1066442 164.409747,25.0004575 164.601176,24.9966249 C167.970059,24.9274118 169.711907,23.0825582 169.879659,20.5730792 C169.954712,19.4525949 169.633281,18.0234702 167.883391,16.5578227 L167.883391,16.5578227 Z M43.7529236,24.9770107 C43.9937177,24.9770107 51.8532545,24.9605529 51.8606257,24.9605529 C54.6185891,24.9605529 57.9106329,23.9052236 57.9870259,19.0632435 L57.9550838,9.5758755 C57.9550838,8.90223224 57.4116218,8.35145899 56.7475394,8.35145899 L55.5426755,8.35348803 C54.8785931,8.35348803 54.3349078,8.90448674 54.3349078,9.57790455 L54.3485334,19.2039241 C54.3503204,19.7659698 54.2906803,20.5764609 53.7532494,21.1234016 C53.3936218,21.4890807 52.8662426,21.6755275 52.1863008,21.677782 L50.9490481,21.6753021 C50.9490481,21.6753021 49.894513,21.6753021 49.8123124,20.529342 L49.801814,9.57474826 C49.801814,8.901105 49.258352,8.35033174 48.5940462,8.35033174 L47.385385,8.35145899 C46.7342582,8.35145899 46.2006245,8.88081454 46.1796276,9.53597093 C46.1673422,9.57970815 46.1912429,20.4209007 46.1912429,20.5016117 C46.1912429,21.2275592 45.5655804,21.677782 44.9950905,21.677782 L43.7468926,21.6737239 C41.8160725,21.6737239 41.6592659,19.6791717 41.6570322,19.0675271 L41.6257603,9.5758755 C41.6257603,8.90245769 41.0822983,8.35145899 40.4179925,8.35145899 L39.2077677,8.35145899 C38.543462,8.35145899 38,8.90223224 38,9.5758755 L38.0020103,19.3069545 C38.0087115,22.8359163 40.1584353,24.9770107 43.7529236,24.9770107 L43.7529236,24.9770107 Z M141.890362,8.35033174 C139.855004,8.35033174 138.173243,8.96603447 137.026456,10.1311578 C135.971474,11.202494 135.415726,12.6755814 135.419077,14.3914779 L135.429129,18.9354137 C135.436053,22.6052815 137.985164,24.9765598 141.922974,24.9765598 C143.950291,24.9765598 145.630042,24.3588281 146.780403,23.190323 C147.839629,22.1142523 148.397833,20.6429686 148.394483,18.9349628 L148.384431,14.391027 C148.377283,10.7213847 145.828395,8.35033174 141.890362,8.35033174 L141.890362,8.35033174 Z M144.081633,20.913508 C143.59178,21.4113006 142.86359,21.6635787 141.91739,21.6635787 C140.072344,21.6635787 139.054665,20.6945965 139.051315,18.9349628 L139.04104,14.3585623 C139.039476,13.5322897 139.269772,12.878486 139.725226,12.4158635 C140.216642,11.9162673 140.947289,11.6633129 141.896393,11.6633129 C143.741215,11.6633129 144.758894,12.6205717 144.762245,14.3590132 L144.77252,18.9354137 C144.774083,19.780624 144.541777,20.4463765 144.081633,20.913508 L144.081633,20.913508 Z M117.306135,8.35033174 C115.270777,8.35033174 113.588792,8.96603447 112.442005,10.1311578 C111.387246,11.2022686 110.831499,12.6755814 110.834626,14.3914779 L110.844901,18.9354137 C110.851826,22.6052815 113.400714,24.9765598 117.338747,24.9765598 C119.366063,24.9765598 121.045814,24.3588281 122.196176,23.190323 C123.255402,22.1142523 123.813383,20.6429686 123.810256,18.9349628 L123.799981,14.391027 C123.793056,10.7213847 121.243945,8.35033174 117.306135,8.35033174 L117.306135,8.35033174 Z M119.497182,20.913508 C119.007329,21.4113006 118.278916,21.6635787 117.332716,21.6635787 C115.487894,21.6635787 114.470215,20.6945965 114.466864,18.9349628 L114.456589,14.3585623 C114.455026,13.5322897 114.685321,12.878486 115.140998,12.4156381 C115.632415,11.9162673 116.362839,11.6633129 117.311942,11.6633129 C119.156988,11.6633129 120.174667,12.6205717 120.178018,14.3590132 L120.188069,18.9354137 C120.189633,19.780624 119.957103,20.4463765 119.497182,20.913508 L119.497182,20.913508 Z M81.3628152,8.3965489 C81.2511297,8.3965489 78.2367362,8.40782138 77.625146,8.41007587 L77.6231357,4.85879453 C77.6231357,4.85654003 77.6233591,4.85428554 77.6233591,4.85225649 L77.6233591,2.22554376 C77.6233591,1.5519005 77.0798971,1.0009018 76.4155913,1.0009018 L75.2058133,1 C74.5415075,1 73.9980455,1.5509987 73.9980455,2.22441652 L74.0503144,19.5687014 C74.0565688,22.8113423 76.6148384,24.9903123 80.4168385,24.9903123 C82.4026079,24.9903123 84.0419287,24.3915183 85.1574441,23.2584088 C86.2104156,22.1886507 86.7654929,20.6984291 86.7621423,18.9487152 L86.750527,13.7530048 C86.7467297,11.7525909 86.0417704,8.3965489 81.3628152,8.3965489 L81.3628152,8.3965489 Z M80.3871301,21.6065399 C78.4703824,21.6065399 77.6512805,20.9272604 77.6481533,19.3346848 L77.6278265,11.7020902 C79.2155485,11.7000612 79.824905,11.7016393 80.5573389,11.7020902 C82.4211477,11.7034429 83.116502,12.20349 83.1176189,13.5519038 C83.1187357,14.8836343 83.1160553,18.8788258 83.1160553,18.8788258 C83.1180656,19.9240099 83.1176189,21.6065399 80.3871301,21.6065399 L80.3871301,21.6065399 Z M70.8820182,17.6151811 C71.7636641,16.71947 72.2092895,15.4643923 72.2061623,13.8844419 C72.1996845,10.3768978 70.0745315,8.36498596 66.3761756,8.36498596 C64.3486358,8.36498596 62.6811703,8.97031801 61.5540395,10.1151508 C60.5542303,11.1308011 60.0272978,12.5132577 60.030425,14.1128223 L60.0420403,19.2762934 C60.0482947,22.6751708 62.5442438,24.8902127 66.2508644,24.9587493 C66.5037205,24.9632583 69.5822215,25.121073 71.8179432,22.7599398 C72.2238086,22.3313603 72.255974,21.6446409 71.8800404,21.1669133 C71.7808636,21.0411125 71.5829568,20.7895108 71.48378,20.6637099 C71.1170046,20.1972548 70.392612,20.0522907 69.9740145,20.3476296 C69.8848894,20.4107555 68.367976,21.6592951 66.5182397,21.7440642 C65.616267,21.7855469 64.8762384,21.6437391 64.3671756,21.179313 C63.9150724,20.7669658 63.6655669,20.1490086 63.6642267,19.4388425 L63.661993,18.929552 C64.5753575,19.0709088 65.4605773,19.1396709 66.3645603,19.1396709 C68.3664124,19.1396709 69.8862297,18.6267732 70.8820182,17.6151811 L70.8820182,17.6151811 Z M63.6555152,15.9948751 L63.6519413,13.9169066 C63.6508244,13.2101223 63.8670477,12.6162882 64.2773804,12.1994319 C64.7393119,11.7302714 65.4451647,11.4822769 66.3185459,11.4822769 C67.9042576,11.4822769 68.7548549,12.4253324 68.7548549,14.0194862 C68.7548549,16.0239581 67.1532838,16.1783911 66.3272573,16.1783911 C65.8548274,16.1783911 64.6810121,16.1148143 63.6555152,15.9948751 L63.6555152,15.9948751 Z" id="Combined-Shape" fill="#FFFFFF"></path>
        </g>
    </g>
</svg>