<?xml version="1.0" encoding="UTF-8"?>
<svg width="16px" height="16px" viewBox="0 0 16 16" version="1.1" xmlns="http://www.w3.org/2000/svg" xmlns:xlink="http://www.w3.org/1999/xlink">
    <!-- Generator: Sketch 48 (47235) - http://www.bohemiancoding.com/sketch -->
    <title>Shape</title>
    <desc>Created with Sketch.</desc>
    <defs></defs>
    <g id="Resulta-da-Simulação" stroke="none" stroke-width="1" fill="none" fill-rule="evenodd" transform="translate(-842.000000, -490.000000)">
        <g id="Cards" transform="translate(550.000000, 478.000000)" fill="#DFE0E6">
            <g id="Cartas">
                <g id="Group-Copy" transform="translate(280.000000, 0.000000)">
                    <path fill="#fdc228" d="M27.4613518,17.7364981 L22.6346436,17.0005801 L20.4711992,12.413312 C20.3495194,12.1377294 20.1923154,12 20.000059,12 C19.8078027,12 19.6507166,12.1377294 19.5289189,12.413312 L17.3653564,17.0005801 L12.5384122,17.7364981 C12.1795101,17.79701 12,17.9515689 12,18.2002985 C12,18.3414928 12.0801363,18.5028578 12.2404089,18.6842695 L15.7404421,22.2532309 L14.9135864,27.2941522 C14.9007221,27.388323 14.894349,27.4556409 14.894349,27.4958584 C14.894349,27.6370527 14.927985,27.7562202 14.995257,27.8538559 C15.062529,27.9513678 15.1634371,28 15.2980991,28 C15.4135237,28 15.5416946,27.9599063 15.6827298,27.8791001 L19.999941,25.4995862 L24.3175062,27.8791001 C24.4522863,27.9597825 24.5804572,28 24.7020189,28 C24.8305439,28 24.9281473,27.9514915 24.9954193,27.8538559 C25.0625733,27.7563439 25.0962093,27.6370527 25.0962093,27.4958584 C25.0962093,27.4084936 25.0930227,27.3412995 25.0865316,27.2941522 L24.2595579,22.2532309 L27.7499133,18.6842695 C27.9167951,18.5095401 28,18.3481751 28,18.2002985 C28,17.9515689 27.820608,17.79701 27.4613518,17.7364981 Z" id="Shape"></path>
                </g>
            </g>
        </g>
    </g>
</svg>