<?xml version="1.0" encoding="UTF-8"?>
<svg width="22px" height="22px" viewBox="0 0 22 22" version="1.1" xmlns="http://www.w3.org/2000/svg" xmlns:xlink="http://www.w3.org/1999/xlink">
    <!-- Generator: Sketch 44.1 (41455) - http://www.bohemiancoding.com/sketch -->
    <title>Page 1</title>
    <desc>Created with Sketch.</desc>
    <defs></defs>
    <g id="Layout-v3" stroke="none" stroke-width="1" fill="none" fill-rule="evenodd" stroke-linejoin="round">
        <g id="Home-Desktop" transform="translate(-711.000000, -1384.000000)" stroke="#999AA5">
            <g id="Bloco-Últimas-Notícias-v2" transform="translate(1.000000, 944.000000)">
                <g id="icons-social-copy-3" transform="translate(677.000000, 441.000000)">
                    <g id="Page-1" transform="translate(34.000000, 0.000000)">
                        <path d="M6.7285,8.51075 C6.18183333,7.41825 5.05516667,6.66658333 3.75016667,6.66658333 C1.90933333,6.66658333 0.416833333,8.15908333 0.416833333,9.99991667 C0.416833333,11.84075 1.90933333,13.33325 3.75016667,13.33325 C5.05516667,13.33325 6.18183333,12.5815833 6.7285,11.4890833" id="Stroke-1"></path>
                        <path d="M16.25,7.08333333 C18.0908333,7.08333333 19.5833333,5.59083333 19.5833333,3.75 C19.5833333,1.90916667 18.0908333,0.416666667 16.25,0.416666667 C14.4091667,0.416666667 12.9166667,1.90916667 12.9166667,3.75 C12.9166667,4.28583333 13.0466667,4.79 13.2708333,5.23916667" id="Stroke-3"></path>
                        <path d="M13.2706667,14.76075 C12.1648333,16.9674167 13.7698333,19.58325 16.2498333,19.58325 C18.0906667,19.58325 19.5831667,18.09075 19.5831667,16.2499167 C19.5831667,14.4090833 18.0906667,12.9165833 16.2498333,12.9165833" id="Stroke-5"></path>
                        <path d="M16.25,7.08333333 C14.945,7.08333333 13.8183333,6.33166667 13.2708333,5.23916667 L6.72833333,8.51083333 C6.95333333,8.95833333 7.08333333,9.46333333 7.08333333,10 C7.08333333,10.5358333 6.95333333,11.04 6.72833333,11.4891667 L13.2708333,14.7608333 C13.8183333,13.6683333 14.945,12.9166667 16.25,12.9166667" id="Stroke-7"></path>
                    </g>
                </g>
            </g>
        </g>
    </g>
</svg>