<?xml version="1.0" encoding="UTF-8"?>
<svg width="14px" height="14px" viewBox="0 0 14 14" version="1.1" xmlns="http://www.w3.org/2000/svg" xmlns:xlink="http://www.w3.org/1999/xlink">
    <!-- Generator: Sketch 48.1 (47250) - http://www.bohemiancoding.com/sketch -->
    <title>ICONS /price</title>
    <desc>Created with Sketch.</desc>
    <defs></defs>
    <g id="Card/ON" stroke="none" stroke-width="1" fill="none" fill-rule="evenodd" transform="translate(-25.000000, -227.000000)">
        <g id="Group" transform="translate(25.000000, 199.000000)" fill="#8B8C99">
            <g id="ICONS-/price" transform="translate(0.000000, 28.000000)">
                <path d="M7.0291665,4.31666658 C7.5926665,4.31666658 8.04999983,4.77502075 8.04999983,5.33749992 C8.04999983,5.61924992 8.2786665,5.84791658 8.5604165,5.84791658 C8.8421665,5.84791658 9.07083317,5.61924992 9.07083317,5.33749992 C9.07083317,4.38914575 8.41749983,3.59697908 7.53958317,3.36831242 L7.53958317,2.78541658 C7.53958317,2.50366658 7.3109165,2.27499992 7.0291665,2.27499992 C6.7474165,2.27499992 6.51874983,2.50366658 6.51874983,2.78541658 L6.51874983,3.36831242 C5.64083317,3.59697908 4.98749983,4.38914575 4.98749983,5.33749992 C4.98749983,6.46347908 5.90318733,7.37916658 7.0291665,7.37916658 C7.5926665,7.37916658 8.04999983,7.83752075 8.04999983,8.39999992 C8.04999983,8.96247908 7.5926665,9.42083325 7.0291665,9.42083325 C6.4656665,9.42083325 6.00833317,8.96247908 6.00833317,8.39999992 C6.00833317,8.11824992 5.7796665,7.88958325 5.4979165,7.88958325 C5.2161665,7.88958325 4.98749983,8.11824992 4.98749983,8.39999992 C4.98749983,9.34835408 5.64083317,10.1405207 6.51874983,10.3691874 L6.51874983,10.9520832 C6.51874983,11.2338332 6.7474165,11.4624999 7.0291665,11.4624999 C7.3109165,11.4624999 7.53958317,11.2338332 7.53958317,10.9520832 L7.53958317,10.3691874 C8.41749983,10.1405207 9.07083317,9.34835408 9.07083317,8.39999992 C9.07083317,7.27402075 8.15514567,6.35833325 7.0291665,6.35833325 C6.4656665,6.35833325 6.00833317,5.89997908 6.00833317,5.33749992 C6.00833317,4.77502075 6.4656665,4.31666658 7.0291665,4.31666658 M7,13.125 C3.623375,13.125 0.875,10.3775 0.875,7 C0.875,3.6225 3.623375,0.875 7,0.875 C10.376625,0.875 13.125,3.6225 13.125,7 C13.125,10.3775 10.376625,13.125 7,13.125 M7,0 C3.140375,0 0,3.140375 0,7 C0,10.859625 3.140375,14 7,14 C10.859625,14 14,10.859625 14,7 C14,3.140375 10.859625,0 7,0" id="Page-1"></path>
            </g>
        </g>
    </g>
</svg>