<?xml version="1.0" encoding="UTF-8"?>
<svg width="46px" height="45px" viewBox="0 0 46 45" version="1.1" xmlns="http://www.w3.org/2000/svg" xmlns:xlink="http://www.w3.org/1999/xlink">
    <!-- Generator: Sketch 48 (47235) - http://www.bohemiancoding.com/sketch -->
    <title>Page 1</title>
    <desc>Created with Sketch.</desc>
    <defs></defs>
    <g id="Vantagens" stroke="none" stroke-width="1" fill="none" fill-rule="evenodd" transform="translate(-506.000000, -146.000000)">
        <g transform="translate(404.000000, 146.000000)" id="Page-1">
            <g transform="translate(102.000000, 0.000000)">
                <path d="M44.4524336,32.8125 C44.4524336,39.024375 39.371615,44.0625 33.1028761,44.0625 C26.8341372,44.0625 21.7533186,39.024375 21.7533186,32.8125 C21.7533186,26.59875 26.8341372,21.5625 33.1028761,21.5625 C39.371615,21.5625 44.4524336,26.59875 44.4524336,32.8125 Z" id="Stroke-1" stroke="#F3123C" stroke-width="1.2" stroke-linejoin="round"></path>
                <path d="M30.472427,35.2880625 C30.472427,36.7280625 31.6508894,37.8961875 33.1036327,37.8961875 C34.5544845,37.8961875 35.7329469,36.7280625 35.7329469,35.2880625 C35.7329469,33.8480625 34.5544845,32.6761875 33.1036327,32.6761875 C31.6508894,32.6761875 30.472427,31.5118125 30.472427,30.0699375 C30.472427,28.6299375 31.6508894,27.4618125 33.1036327,27.4618125 C34.5544845,27.4618125 35.7329469,28.6299375 35.7329469,30.0699375" id="Stroke-3" stroke="#F3123C" stroke-width="1.2" stroke-linecap="round" stroke-linejoin="round"></path>
                <path d="M33.2831858,37.8954375 L33.2831858,39.6316875" id="Stroke-5" stroke="#F3123C" stroke-width="1.2" stroke-linecap="round" stroke-linejoin="round"></path>
                <path d="M33.2831858,25.7225625 L33.2831858,27.4625625" id="Stroke-7" stroke="#F3123C" stroke-width="1.2" stroke-linecap="round" stroke-linejoin="round"></path>
                <path d="M0.94579646,8 L38.7776549,8" id="Stroke-9" stroke="#F3123C" stroke-width="1.2" stroke-linecap="round" stroke-linejoin="round"></path>
                <path d="M6.62057522,3.75 C6.09849558,3.75 5.67477876,4.17 5.67477876,4.6875 C5.67477876,5.205 6.09849558,5.625 6.62057522,5.625 C7.14265487,5.625 7.56637168,5.205 7.56637168,4.6875 C7.56637168,4.17 7.14265487,3.75 6.62057522,3.75" id="Fill-11"></path>
                <path d="M10.4037611,3.75 C9.88168142,3.75 9.4579646,4.17 9.4579646,4.6875 C9.4579646,5.205 9.88168142,5.625 10.4037611,5.625 C10.9258407,5.625 11.3495575,5.205 11.3495575,4.6875 C11.3495575,4.17 10.9258407,3.75 10.4037611,3.75" id="Fill-13"></path>
                <path d="M14.1869469,3.75 C13.6648673,3.75 13.2411504,4.17 13.2411504,4.6875 C13.2411504,5.205 13.6648673,5.625 14.1869469,5.625 C14.7090265,5.625 15.1327434,5.205 15.1327434,4.6875 C15.1327434,4.17 14.7090265,3.75 14.1869469,3.75" id="Fill-15"></path>
                <path d="M16.0785398,30.9375 L4.7289823,30.9375 C2.64066372,30.9375 0.94579646,29.2575 0.94579646,27.1875 L0.94579646,4.6875 C0.94579646,2.615625 2.64066372,0.9375 4.7289823,0.9375 L34.994469,0.9375 C37.0846792,0.9375 38.7776549,2.615625 38.7776549,4.6875 L38.7776549,15.9375" id="Stroke-17" stroke="#F3123C" stroke-width="1.2" stroke-linecap="round" stroke-linejoin="round"></path>
            </g>
        </g>
    </g>
</svg>