<?xml version="1.0" encoding="UTF-8"?>
<svg width="45px" height="47px" viewBox="0 0 45 47" version="1.1" xmlns="http://www.w3.org/2000/svg" xmlns:xlink="http://www.w3.org/1999/xlink">
    <!-- Generator: Sketch 48 (47235) - http://www.bohemiancoding.com/sketch -->
    <title>Page 1</title>
    <desc>Created with Sketch.</desc>
    <defs></defs>
    <g id="Vantagens" stroke="none" stroke-width="1" fill="none" fill-rule="evenodd" transform="translate(-1087.000000, -145.000000)" stroke-linecap="round" stroke-linejoin="round">
        <g transform="translate(404.000000, 146.000000)" id="Group" stroke="#F3123C" stroke-width="1.2">
            <g transform="translate(591.000000, 0.000000)">
                <g id="Page-1" transform="translate(93.000000, 0.000000)">
                    <path d="M26.4864391,0.330395293 L7.77657962,0.330395293 C3.64357166,0.330395293 0.292635831,4.11370994 0.292635831,8.78000925 L0.292635831,17.2296232 C0.292635831,21.8980349 3.64357166,25.6792372 7.77657962,25.6792372 L9.64756557,25.6792372 L9.64756557,34.1288511 L18.0670023,25.6792372 L26.4864391,25.6792372 C30.6194471,25.6792372 33.9703829,21.8980349 33.9703829,17.2296232 L33.9703829,8.78000925 C33.9703829,4.11370994 30.6194471,0.330395293 26.4864391,0.330395293 Z" id="Stroke-1"></path>
                    <path d="M20.8734813,33.0726494 C20.8734813,35.9898786 22.9671145,38.3536581 25.5509461,38.3536581 L30.228411,38.3536581 L35.8413688,44.6908686 L35.8413688,38.3536581 L38.6478478,38.3536581 C41.2316794,38.3536581 43.3253126,35.9898786 43.3253126,33.0726494 L43.3253126,28.8478424 C43.3253126,25.9306132 41.2316794,23.5668337 38.6478478,23.5668337" id="Stroke-3"></path>
                </g>
            </g>
        </g>
    </g>
</svg>