<?xml version="1.0" encoding="UTF-8"?>
<svg width="49px" height="42px" viewBox="0 0 49 42" version="1.1" xmlns="http://www.w3.org/2000/svg" xmlns:xlink="http://www.w3.org/1999/xlink">
    <!-- Generator: Sketch 48 (47235) - http://www.bohemiancoding.com/sketch -->
    <title>icon-consor</title>
    <desc>Created with Sketch.</desc>
    <defs></defs>
    <g id="Vantagens" stroke="none" stroke-width="1" fill="none" fill-rule="evenodd" transform="translate(-796.000000, -146.000000)" stroke-linecap="round" stroke-linejoin="round">
        <g transform="translate(404.000000, 146.000000)" id="icon-consor" stroke="#F3123C" stroke-width="1.2">
            <g transform="translate(393.000000, 1.000000)">
                <g id="Page-1">
                    <g id="Group-6">
                        <polygon id="Stroke-1" points="2.375 29.375 9.125 29.375 9.125 24.875 2.375 24.875"></polygon>
                        <polyline id="Stroke-3" points="42.875 15.875 38.375 11.375 4.625 11.375 0.125 15.875 0.125 24.875 19.25 24.875"></polyline>
                        <polygon id="Stroke-4" points="33.875 0.125 9.125 0.125 4.625 11.375 38.375 11.375"></polygon>
                        <path d="M0.125,20 L10.25,20" id="Stroke-5"></path>
                    </g>
                </g>
                <g id="Page-1" transform="translate(23.000000, 16.000000)">
                    <path d="M23.5,12 C23.5,18.351 18.351,23.5 12,23.5 C5.648,23.5 0.5,18.351 0.5,12 C0.5,5.648 5.648,0.5 12,0.5 C18.351,0.5 23.5,5.648 23.5,12 Z" id="Stroke-1"></path>
                    <path d="M19.5,13.5 C19.5,17.143 16.142,20.5 12,20.5 C7.858,20.5 4.5,17.143 4.5,13.5 L19.5,13.5 Z" id="Stroke-3"></path>
                    <path d="M5.5,10 C5.5,7.357 9.5,7.354 9.5,10" id="Stroke-5"></path>
                    <path d="M18.5,10 C18.5,7.357 14.5,7.354 14.5,10" id="Stroke-7"></path>
                </g>
            </g>
        </g>
    </g>
</svg>