<?xml version="1.0" encoding="UTF-8"?>
<svg width="115px" height="36px" viewBox="0 0 115 36" version="1.1" xmlns="http://www.w3.org/2000/svg" xmlns:xlink="http://www.w3.org/1999/xlink">
    <!-- Generator: Sketch 44.1 (41455) - http://www.bohemiancoding.com/sketch -->
    <title>WM1_tradicional</title>
    <desc>Created with Sketch.</desc>
    <defs></defs>
    <g id="Layout-v3" stroke="none" stroke-width="1" fill="none" fill-rule="evenodd">
        <g id="Home-Desktop" transform="translate(-405.000000, -32.000000)">
            <g id="Header" transform="translate(-1.000000, 0.000000)">
                <g id="Header-WM1-">
                    <g id="base">
                        <g id="Logo-WM1-Color" transform="translate(406.000000, 32.000000)">
                            <g id="WM1_tradicional">
                                <g id="Group">
                                    <path d="M37.8910256,0.197260274 C35.6794872,0.197260274 33.1239316,-0.197260274 22.9017094,3.94520548 C16.6111111,6.50958904 13.2692308,2.46575342 13.2692308,2.46575342 C13.1709402,7.9890411 17.9871795,8.82739726 19.6581197,9.96164384 L19.6581197,9.96164384 C19.9038462,10.1589041 20.1004274,10.4547945 20.1004274,10.8 C20.1004274,11.2931507 19.707265,11.7369863 19.215812,11.7863014 C18.1837607,11.8849315 16.2179487,11.6876712 12.5320513,10.7013699 C3.24358974,8.23561644 0.0491452991,15.139726 0.0491452991,15.139726 C10.2713675,12.0821918 17.6431624,21.8958904 12.9252137,22.0438356 C8.30555556,22.1917808 6.78205128,25.4958904 6.78205128,25.4958904 C11.1068376,23.4246575 17.741453,28.8986301 24.0320513,32.0547945 C30.3226496,35.2109589 35.5811966,35.7041096 35.6303419,35.6547945 C36.3675214,35.7534247 37.1047009,35.8027397 37.8910256,35.8027397 C47.7200855,35.8027397 55.6816239,27.8136986 55.6816239,17.9506849 C55.6324786,8.18630137 47.6709402,0.098630137 37.8910256,0.197260274 L37.8910256,0.197260274 Z" id="Shape" fill="#FF0224"></path>
                                    <path d="M99.6175214,7.84109589 L90.525641,7.84109589 C87.4294872,7.84109589 83.7435897,9.02465753 83.6452991,14.4493151 L83.6944444,25.0520548 C83.6944444,25.7917808 84.284188,26.4328767 85.0705128,26.4328767 L86.4465812,26.4328767 C87.1837607,26.4328767 87.8226496,25.8410959 87.8226496,25.0520548 L87.8226496,14.3013699 C87.8226496,13.660274 87.8717949,12.7726027 88.5106838,12.1808219 C88.9038462,11.7863014 89.4935897,11.539726 90.2799145,11.539726 L91.6559829,11.539726 C91.6559829,11.539726 92.8354701,11.539726 92.9337607,12.8219178 L92.9337607,25.0520548 C92.9337607,25.7917808 93.5235043,26.4328767 94.3098291,26.4328767 L95.6858974,26.4328767 C96.4230769,26.4328767 97.0128205,25.8410959 97.0619658,25.1013699 L97.0619658,12.8712329 C97.0619658,12.0821918 97.75,11.539726 98.3888889,11.539726 L99.8141026,11.539726 C101.976496,11.539726 102.173077,13.7589041 102.173077,14.4493151 L102.222222,25.0520548 C102.222222,25.7917808 102.811966,26.4328767 103.598291,26.4328767 L104.974359,26.4328767 C105.711538,26.4328767 106.350427,25.8410959 106.350427,25.0520548 L106.350427,14.1534247 C106.055556,10.2575342 103.647436,7.84109589 99.6175214,7.84109589 L99.6175214,7.84109589 Z" id="Shape" fill="#1E1E1E"></path>
                                    <path d="M65.8055556,26.4328767 L74.8974359,26.4328767 C77.9935897,26.4328767 81.6794872,25.2493151 81.7777778,19.8246575 L81.7286325,9.22191781 C81.7286325,8.48219178 81.1388889,7.84109589 80.3525641,7.84109589 L78.9764957,7.84109589 C78.2393162,7.84109589 77.6004274,8.43287671 77.6004274,9.22191781 L77.6004274,19.9726027 C77.6004274,20.6136986 77.5512821,21.5013699 76.9123932,22.0931507 C76.5192308,22.4876712 75.9294872,22.7342466 75.1431624,22.7342466 L73.767094,22.7342466 C73.767094,22.7342466 72.5876068,22.7342466 72.4893162,21.4520548 L72.4893162,9.22191781 C72.4893162,8.48219178 71.8995726,7.84109589 71.1132479,7.84109589 L69.7371795,7.84109589 C69,7.84109589 68.4102564,8.43287671 68.3611111,9.17260274 L68.3611111,21.4027397 C68.3611111,22.1917808 67.6730769,22.7342466 67.034188,22.7342466 L65.6089744,22.7342466 C63.4465812,22.7342466 63.25,20.5150685 63.25,19.8246575 L63.3974359,9.22191781 C63.3974359,8.48219178 62.8076923,7.84109589 62.0213675,7.84109589 L60.6452991,7.84109589 C59.9081197,7.84109589 59.2692308,8.43287671 59.2692308,9.22191781 L59.2692308,20.1205479 C59.3675214,24.0164384 61.775641,26.4328767 65.8055556,26.4328767 L65.8055556,26.4328767 Z" id="Shape" fill="#1E1E1E"></path>
                                    <path d="M113.574786,7.93972603 L111.805556,7.93972603 C111.608974,7.93972603 111.412393,7.9890411 111.215812,8.1369863 L107.775641,10.4547945 C107.284188,10.7506849 107.185897,11.3917808 107.431624,11.8849315 L108.316239,13.3150685 C108.463675,13.5616438 108.709402,13.7589041 109.004274,13.8082192 C109.299145,13.8575342 109.594017,13.8082192 109.839744,13.660274 L110.675214,13.1178082 L110.675214,25.3479452 C110.675214,25.939726 111.166667,26.4328767 111.75641,26.4328767 L113.673077,26.4328767 C114.262821,26.4328767 114.754274,25.939726 114.754274,25.3479452 L114.754274,9.02465753 C114.606838,8.43287671 114.16453,7.93972603 113.574786,7.93972603 L113.574786,7.93972603 Z" id="Shape" fill="#FF0224"></path>
                                    <g id="XMLID_3_" transform="translate(27.521368, 9.369863)" fill="#FFFFFF">
                                        <path d="M19.1175214,0.0493150685 C18.4294872,0.0493150685 17.8397436,0.64109589 17.8397436,1.33150685 L17.8397436,6.70684932 C17.8397436,7.10136986 17.5448718,7.39726027 17.1517094,7.39726027 L12.3846154,7.39726027 C11.991453,7.39726027 11.6965812,7.10136986 11.6965812,6.70684932 L11.6965812,1.33150685 C11.6965812,0.64109589 11.1068376,0.0493150685 10.4188034,0.0493150685 C9.73076923,0.0493150685 9.14102564,0.64109589 9.14102564,1.33150685 L9.14102564,6.70684932 C9.14102564,7.10136986 8.84615385,7.39726027 8.45299145,7.39726027 L3.68589744,7.39726027 C3.29273504,7.39726027 2.99786325,7.10136986 2.99786325,6.70684932 L2.99786325,1.33150685 C2.99786325,0.64109589 2.40811966,0.0493150685 1.72008547,0.0493150685 C1.03205128,0.0493150685 0.442307692,0.64109589 0.442307692,1.33150685 L0.442307692,16.0273973 C0.442307692,16.7178082 1.03205128,17.309589 1.72008547,17.309589 C2.40811966,17.309589 2.99786325,16.7178082 2.99786325,16.0273973 L2.99786325,10.7013699 C2.99786325,10.3068493 3.29273504,10.0109589 3.68589744,10.0109589 L8.35470085,10.0109589 C8.74786325,10.0109589 9.04273504,10.3068493 9.04273504,10.7013699 L9.04273504,16.0767123 C9.04273504,16.7671233 9.63247863,17.3589041 10.3205128,17.3589041 C11.008547,17.3589041 11.5982906,16.7671233 11.5982906,16.0767123 L11.5982906,10.7013699 C11.5982906,10.3068493 11.8931624,10.0109589 12.2863248,10.0109589 L17.0534188,10.0109589 C17.4465812,10.0109589 17.741453,10.3068493 17.741453,10.7013699 L17.741453,16.0767123 C17.741453,16.7671233 18.3311966,17.3589041 19.0192308,17.3589041 C19.707265,17.3589041 20.2970085,16.7671233 20.2970085,16.0767123 L20.2970085,1.33150685 C20.3952991,0.591780822 19.8055556,0.0493150685 19.1175214,0.0493150685 L19.1175214,0.0493150685 Z" id="Shape"></path>
                                    </g>
                                </g>
                            </g>
                        </g>
                    </g>
                </g>
            </g>
        </g>
    </g>
</svg>