<?xml version="1.0" encoding="UTF-8"?>
<svg width="132px" height="24px" viewBox="0 0 132 24" version="1.1" xmlns="http://www.w3.org/2000/svg" xmlns:xlink="http://www.w3.org/1999/xlink">
    <!-- Generator: Sketch 48.2 (47327) - http://www.bohemiancoding.com/sketch -->
    <title>Page 1</title>
    <desc>Created with Sketch.</desc>
    <defs>
        <polygon id="path-1" points="0 0.0451166078 26.1587899 0.0451166078 26.1587899 24 0 24"></polygon>
    </defs>
    <g id="Header-Santander" stroke="none" stroke-width="1" fill="none" fill-rule="evenodd" transform="translate(-894.000000, -11.000000)">
        <g id="Page-1" transform="translate(894.000000, 11.000000)">
            <g id="Group-3">
                <mask id="mask-2" fill="white">
                    <use xlink:href="#path-1"></use>
                </mask>
                <g id="Clip-2"></g>
                <path d="M13.4668817,1.1723788 C13.4668817,4.11920565 18.4187585,7.38914205 18.4187585,10.7497357 C18.4187585,10.7497357 18.4187585,11.0722516 18.2813249,11.4182587 C22.9110734,12.3867392 26.1587899,14.6870078 26.1587899,17.3817074 C26.1587899,20.996294 20.3232558,23.9656792 13.1038494,23.989764 C13.0563374,24.0128311 13.0104983,23.989764 12.966834,23.989764 C5.81350961,23.989764 -2.50943944e-05,21.1108664 -2.50943944e-05,17.5200254 C-2.50943944e-05,14.8257498 3.56454999,12.6402233 7.81211083,11.4873753 C7.81211083,12.9836014 12.6958146,17.6813258 12.8076519,19.5919972 C12.8076519,19.5919972 12.8286476,19.7521951 12.8286476,19.9365625 C12.8286476,20.030188 12.8286476,20.1202516 12.8076519,20.2145555 C13.8525825,19.6617922 13.8525825,17.9114035 13.8525825,17.9114035 C13.8525825,13.7903576 9.1476345,11.9481244 9.1476345,7.89619505 C9.1476345,6.32966502 9.87997258,5.15731166 10.5381149,4.83267562 L10.5381149,5.9633894 C10.5381149,8.91021625 15.6675764,12.20093 15.6675764,14.8949512 L15.6675764,15.7692975 C16.8499406,15.3093965 16.8499406,13.1223435 16.8499406,13.1223435 C16.8499406,9.3983576 12.0813365,7.34360141 12.0813365,3.10637173 C12.0813365,1.51770742 12.8076519,0.366979505 13.4668817,0.0450572438 L13.4668817,1.1723788 Z" id="Fill-1" fill="#FFFFFF" mask="url(#mask-2)"></path>
            </g>
            <path d="M36.9029319,21.8181818 C34.4622576,21.8181818 32.7272727,21.1192656 32.7272727,21.1192656 L32.7272727,16.8843217 L33.3227209,16.8843217 C33.6320919,19.1389618 35.3394154,20.8356367 37.2556553,20.8356367 C39.1640498,20.8356367 40.5054662,19.7640309 40.5054662,18.0435901 C40.5054662,16.2365557 38.7258348,15.4094349 37.540034,14.7851059 L35.8238944,13.9137427 C34.1579013,13.0879377 32.8456021,11.7261242 32.8456021,9.85067017 C32.8456021,7.48550606 34.5504991,5.45454545 37.8683312,5.45454545 C40.1101993,5.45454545 41.9994248,6.23495668 41.9994248,6.23495668 L41.9994248,10.0294493 L41.3599772,10.0294493 C41.0100038,7.9984887 39.9109886,6.4125023 37.6725176,6.4125023 C36.0011054,6.4125023 34.9684129,7.57522457 34.9684129,8.75669645 C34.9684129,10.3194103 36.0671045,11.0127346 37.2978754,11.637557 L39.010537,12.5298902 C40.573083,13.3342318 42.5454545,14.6726905 42.5454545,16.9740402 C42.5454545,19.8974163 40.5277895,21.8181818 36.9029319,21.8181818" id="Fill-4" fill="#FFFFFF"></path>
            <path d="M48.2921009,18.1669281 C47.7656249,18.3777177 46.9137955,18.7744322 46.9137955,19.9179441 C46.9137955,20.5265667 47.2593881,21.5077275 48.499575,21.5077275 C49.0713567,21.5077275 49.8777957,21.1811328 50.4549124,20.7128358 L50.4549124,17.2320549 L48.2921009,18.1669281 Z M47.3060486,22.9090909 C45.741948,22.9090909 44.7272727,21.8573801 44.7272727,20.2923752 C44.7272727,19.1474867 45.5341352,18.2835077 47.3060486,17.6310064 L50.4549124,16.4857739 L50.4549124,15.4806948 C50.4549124,14.0085234 49.7886242,13.0973962 48.7746264,13.0973962 C48.0393213,13.0973962 47.352455,13.4491997 47.0069472,14.0085234 C46.8681512,14.2187967 46.8447786,14.5229359 46.8447786,14.756181 C46.8447786,15.1535839 47.097897,15.6224831 47.097897,15.6224831 L45.576985,16.3432973 C45.3964402,15.9936448 45.1673718,15.5037526 45.1673718,15.0140326 C45.1673718,14.9201667 45.186849,14.8269891 45.186849,14.756181 C45.3032885,13.9153458 46.0170841,13.3553338 46.98078,12.7490342 C47.9256763,12.16476 48.7746264,12 49.3481864,12 C52.2469804,12 52.7526244,14.3603268 52.7526244,15.1296657 L52.7526244,20.0121541 C52.7526244,20.7822673 52.8234196,21.2732779 53.4436401,21.2732779 C53.6252858,21.2732779 53.7417253,21.2732779 53.9928113,21.1811328 L54.5454545,20.9927127 L54.5454545,21.6940827 L51.3261342,22.9090909 C50.8425079,22.5595244 50.6148792,21.927844 50.5224897,21.3905457 C49.7616949,22.0451118 48.4528298,22.9090909 47.3060486,22.9090909 Z" id="Fill-6" fill="#FFFFFF"></path>
            <path d="M55.6363636,22.9090909 L55.6363636,22.3360064 L56.3848806,22.1930431 C56.8378842,22.0971187 57.1564572,21.7397981 57.1564572,21.2626381 L57.1564572,14.8410675 C57.1564572,14.2917224 56.9074807,14.005356 56.4537252,14.005356 C56.2923082,14.005356 56.1138471,14.0303262 55.9314593,14.100577 L55.6363636,14.2194494 L55.6363636,13.504017 L58.9026348,12 L59.3804525,12 L59.3804525,13.7897679 C60.3772777,12.5980547 61.5569084,12 62.6456376,12 C64.9593647,12 66.069399,13.7660286 66.069399,15.7974978 L66.069399,21.2626381 C66.069399,21.7397981 66.4127861,22.1213855 66.8640351,22.1930431 L67.6363636,22.3360064 L67.6363636,22.9090909 L62.2365809,22.9090909 L62.2365809,22.3360064 L62.9858498,22.1930431 C63.4385192,22.0971187 63.8038797,21.7397981 63.8038797,21.2626381 L63.8038797,15.8199183 C63.8038797,15.1038705 63.6194867,13.504017 61.7622722,13.504017 C60.7639432,13.504017 59.9236057,14.1498141 59.4240652,14.6254795 L59.4240652,21.2626381 C59.4240652,21.7397981 59.787337,22.0971187 60.2400064,22.1930431 L60.9899437,22.3360064 L60.9899437,22.9090909 L55.6363636,22.9090909 Z" id="Fill-8" fill="#FFFFFF"></path>
            <path d="M75.9516087,13.738352 L72.7174266,13.738352 L72.7174266,19.4472508 C72.7174266,20.729933 73.3782827,21.4184837 74.3336362,21.4184837 C74.7232491,21.4184837 75.3395277,21.3037112 75.9516087,20.9827873 L76.2042989,21.5335941 L74.1051237,22.8413591 C74.1051237,22.8413591 73.6962861,22.9090909 73.4920352,22.9090909 C71.5083755,22.9090909 70.436835,21.7397455 70.436835,19.2393258 L70.436835,13.738352 L68.7272727,13.738352 L68.7272727,13.1653339 C68.7272727,13.1653339 71.279863,12.1789995 72.2618287,9.81818182 L72.7174266,9.81818182 L72.7174266,12.7299752 L76.3636364,12.7299752 L75.9516087,13.738352 Z" id="Fill-10" fill="#FFFFFF"></path>
            <path d="M79.8844228,18.1669281 C79.4022486,18.3777177 78.5494251,18.7744322 78.5494251,19.9179441 C78.5494251,20.5265667 78.8921296,21.5077275 80.0894358,21.5077275 C80.6654367,21.5077275 81.5143648,21.1811328 82.0889261,20.7128358 L82.0889261,17.2320549 L79.8844228,18.1669281 Z M78.9387889,22.9090909 C77.3768458,22.9090909 76.3636364,21.8573801 76.3636364,20.2923752 C76.3636364,19.1474867 77.1701392,18.2835077 78.9387889,17.6310064 L82.0889261,16.4857739 L82.0889261,15.4806948 C82.0889261,14.0085234 81.409953,13.0973962 80.3665971,13.0973962 C79.6755145,13.0973962 78.9845167,13.4491997 78.6407114,14.0085234 C78.5065765,14.2187967 78.4786317,14.5229359 78.4786317,14.756181 C78.4786317,15.1535839 78.7341993,15.6224831 78.7341993,15.6224831 L77.2143428,16.3432973 C77.0334639,15.9936448 76.8022845,15.5037526 76.8022845,15.0140326 C76.8022845,14.9201667 76.8238782,14.8269891 76.8238782,14.756181 C76.9389598,13.9153458 77.6529909,13.3553338 78.6191177,12.7490342 C79.5615338,12.16476 80.3665971,12 80.9411584,12 C83.8810325,12 84.3897119,14.3603268 84.3897119,15.1296657 L84.3897119,20.0121541 C84.3897119,20.7822673 84.4555938,21.2732779 85.0768991,21.2732779 C85.2631128,21.2732779 85.3767549,21.2732779 85.6298667,21.1811328 L86.1818182,20.9927127 L86.1818182,21.6940827 L82.9623271,22.9090909 C82.4801529,22.5595244 82.2510905,21.927844 82.1600583,21.3905457 C81.3805687,22.0451118 80.0451476,22.9090909 78.9387889,22.9090909 Z" id="Fill-12" fill="#FFFFFF"></path>
            <path d="M87.2727273,22.9090909 L87.2727273,22.3360064 L88.0164938,22.1930431 C88.5023481,22.0971187 88.8316067,21.7397981 88.8316067,21.2626381 L88.8316067,14.8410675 C88.8316067,14.2917224 88.5800215,14.005356 88.0850929,14.005356 C87.9284973,14.005356 87.7464268,14.0303262 87.5647726,14.100577 L87.2727273,14.2194494 L87.2727273,13.504017 L90.5722236,12 L91.0462562,12 L91.0462562,13.7897679 C92.0402759,12.5980547 93.2160332,12 94.2577559,12 C96.6066896,12 97.7165951,13.7660286 97.7165951,15.7974978 L97.7165951,21.2626381 C97.7165951,21.7397981 98.0535129,22.1213855 98.5063164,22.1930431 L99.2727273,22.3360064 L99.2727273,22.9090909 L93.8494086,22.9090909 L93.8494086,22.3360064 L94.5960057,22.1930431 C95.0725358,22.0971187 95.454326,21.7397981 95.454326,21.2626381 L95.454326,15.8199183 C95.454326,15.1038705 95.2715895,13.504017 93.4203317,13.504017 C92.4258957,13.504017 91.591302,14.1498141 91.0922108,14.6254795 L91.0922108,21.2626381 C91.0922108,21.7397981 91.4517729,22.0971187 91.9059084,22.1930431 L92.6500913,22.3360064 L92.6500913,22.9090909 L87.2727273,22.9090909 Z" id="Fill-14" fill="#FFFFFF"></path>
            <path d="M106.123676,13.0043014 C104.491749,13.0043014 102.81228,14.0792331 102.81228,17.2321023 C102.81228,19.8711656 104.083432,21.4610218 106.079979,21.4610218 C107.279862,21.4610218 108.029152,20.7358257 108.228924,20.3617419 L108.228924,14.2425291 C107.917026,13.4717341 107.078002,13.0043014 106.123676,13.0043014 M105.10368,22.9090909 C102.972281,22.9090909 100.363636,21.2732055 100.363636,17.7000512 C100.363636,14.5691211 102.742097,12.0000051 105.875361,12.0000051 C106.919421,12.0000051 107.668627,12.2102766 108.228924,12.4436919 L108.228924,7.07230258 C108.228924,6.51100478 107.917026,6.34770877 107.554746,6.34770877 C107.350045,6.34770877 107.122702,6.39322173 106.919421,6.46463147 L106.464567,6.62732523 L106.464567,5.90548457 L110.048424,4.36363636 L110.526673,4.36363636 L110.526673,19.8711656 C110.526673,20.7588833 110.662862,21.2732055 111.273456,21.2732055 C111.454429,21.2732055 111.569312,21.2732055 111.819131,21.1811472 L112.363636,20.9926427 L112.363636,21.6940928 L109.185337,22.9090909 C108.687203,22.5594413 108.427024,21.9041063 108.301613,21.3667265 C107.691019,22.0213732 106.623231,22.9090909 105.10368,22.9090909" id="Fill-16" fill="#FFFFFF"></path>
            <path d="M120.757792,15.6440495 L120.757792,15.5980203 C120.757792,13.8452114 119.772513,13.0042968 118.600872,13.0042968 C117.280677,13.0042968 116.295398,13.8684411 116.010751,15.6440495 L120.757792,15.6440495 Z M115.943785,16.625977 L115.943785,16.7421254 C115.919214,19.8711641 117.703496,21.4365009 119.938197,21.4365009 C121.064155,21.4365009 122.131541,21.017076 122.966017,20.3861749 L122.966017,21.3195781 C122.006781,22.1839806 120.548329,22.9090909 118.787234,22.9090909 C115.095206,22.9090909 113.454545,20.1768496 113.454545,17.5598103 C113.454545,14.5003746 115.82586,12 118.832397,12 C121.300699,12 123.272727,13.7513463 123.272727,16.3209798 L123.272727,16.625977 L115.943785,16.625977 Z" id="Fill-18" fill="#FFFFFF"></path>
            <path d="M124.363636,22.9090909 L124.363636,22.3384761 L125.096369,22.1961288 C125.520557,22.1006178 125.852804,21.7448371 125.852804,21.2697333 L125.852804,14.8758357 C125.852804,14.3288579 125.607658,14.0437255 125.162556,14.0437255 C125.006889,14.0437255 124.829242,14.0685882 124.650283,14.1385362 L124.363636,14.2568963 L124.363636,13.544547 L127.52331,12.0470114 L127.991705,12.0470114 L127.991705,14.3765696 C128.834831,12.6902881 129.795979,12 130.88704,12 C131.779212,12 132,12.2380334 132,12.2380334 L132,14.781025 L131.553586,14.781025 C131.442208,14.1148992 131.01802,13.7820551 130.35008,13.7820551 C129.640312,13.7820551 128.749124,13.9959263 128.086351,15.3743139 L128.086351,21.2697333 C128.086351,21.7448371 128.563604,22.12478 128.991892,22.1961288 L130.060645,22.3384761 L130.060645,22.9090909 L124.363636,22.9090909 Z" id="Fill-20" fill="#FFFFFF"></path>
        </g>
    </g>
</svg>