<?xml version="1.0" encoding="UTF-8"?>
<svg width="113px" height="21px" viewBox="0 0 113 21" version="1.1" xmlns="http://www.w3.org/2000/svg" xmlns:xlink="http://www.w3.org/1999/xlink">
    <!-- Generator: Sketch 48 (47235) - http://www.bohemiancoding.com/sketch -->
    <title>Logo</title>
    <desc>Created with Sketch.</desc>
    <defs>
        <polygon id="path-1" points="22.4934258 20.623973 0 20.623973 0 0.279867313 22.4934258 0.279867313"></polygon>
    </defs>
    <g id="Bloco-Atendimento-e-Footer" stroke="none" stroke-width="1" fill="none" fill-rule="evenodd" transform="translate(-1400.000000, -442.000000)">
        <g id="Group" transform="translate(0.000000, 343.000000)">
            <g id="Footer">
                <g id="Logo" transform="translate(1400.000000, 99.000000)">
                    <g id="Group-3" transform="translate(0.000000, 0.132695)">
                        <mask id="mask-2" fill="white">
                            <use xlink:href="#path-1"></use>
                        </mask>
                        <g id="Clip-2"></g>
                        <path d="M11.5806632,1.24589421 C11.5806632,3.74593221 15.8282057,6.52233146 15.8282057,9.37792676 C15.8282057,9.37792676 15.8282057,9.65387552 15.7099747,9.94797337 C19.6817841,10.7758196 22.4934258,12.7251976 22.4934258,15.0103338 C22.4934258,18.0820683 17.4792619,20.6241792 11.2656591,20.6241792 C4.91878537,20.6241792 -0.00012533321,18.1241412 -0.00012533321,15.1283029 C-0.00012533321,12.8452291 3.04714277,10.9923714 6.7252547,10.0094328 C6.7252547,11.2687326 10.9097128,15.267721 11.0108149,16.8809281 C11.0220949,17.0661314 11.0588593,17.2224611 11.0108149,17.4126142 C11.9148851,16.9415626 11.9148851,15.4632362 11.9148851,15.4632362 C11.9148851,11.9579858 7.8457336,10.4021133 7.8457336,6.95625985 C7.8457336,5.61693904 8.47532409,4.63276305 9.04475464,4.35763925 L9.04475464,5.32119127 C9.04475464,7.82287919 13.4477103,10.618665 13.4477103,12.9038012 L13.4477103,13.6520389 C14.4716826,13.259771 14.4716826,11.3867017 14.4716826,11.3867017 C14.4716826,8.23577113 10.3816422,6.48314591 10.3816422,2.87931287 C10.3816422,1.5412295 11.0108149,0.556641031 11.5806632,0.279867313 L11.5806632,1.24589421 Z" id="Fill-1" fill="#FFFFFF" mask="url(#mask-2)"></path>
                    </g>
                    <path d="M31.4185708,19.7883309 C29.2762085,19.7883309 27.7241655,19.1778613 27.7241655,19.1778613 L27.7241655,15.4581215 L28.2551606,15.4581215 C28.5296403,17.425236 30.0231944,18.9208865 31.7323216,18.9208865 C33.4427021,18.9208865 34.6413054,17.9767211 34.6413054,16.4810705 C34.6413054,14.8872499 33.0487381,14.1596361 31.9884191,13.6279501 L30.4564295,12.8603258 C29.0021465,12.1327121 27.8235966,10.9505459 27.8235966,9.29815323 C27.8235966,7.23204362 29.3560039,5.46168177 32.2829522,5.46168177 C34.2870302,5.46168177 35.9376686,6.13072346 35.9376686,6.13072346 L35.9376686,9.45489543 L35.4062557,9.45489543 C35.0929227,7.68453358 34.1103104,6.28705317 32.1062323,6.28705317 C30.6126783,6.28705317 29.7290791,7.31082719 29.7290791,8.35316279 C29.7290791,9.71104517 30.6715849,10.3215148 31.7715927,10.8729998 L33.3052534,11.6393866 C34.6989587,12.3492638 36.4293925,13.5293675 36.4293925,15.5373175 C36.4293925,18.0951027 34.6605232,19.7883309 31.4185708,19.7883309" id="Fill-4" fill="#FFFFFF"></path>
                    <path d="M40.51584,19.7093823 C39.1793703,19.7093823 38.3149889,18.8229639 38.3149889,17.5046796 C38.3149889,16.5609266 39.0026504,15.8316629 40.51584,15.2801778 L43.1687263,14.3170383 L43.1687263,13.4887796 C43.1687263,12.2505162 42.5984602,11.4824795 41.7336611,11.4824795 C41.1433416,11.4824795 40.5546933,11.7782272 40.2597425,12.2505162 C40.1427649,12.4266449 40.1235471,12.6844446 40.1235471,12.8791349 C40.1235471,13.2140682 40.3382847,13.6067487 40.3382847,13.6067487 L39.0423393,14.1990692 C38.885255,13.9239454 38.6884818,13.5102285 38.6884818,13.0960991 C38.6884818,13.0181405 38.7072818,12.9389444 38.7072818,12.8791349 C38.8062951,12.1717326 39.4158322,11.6990312 40.2405248,11.2077681 C41.0464173,10.7165051 41.7336611,10.5762621 42.2249672,10.5762621 C44.7011337,10.5762621 45.1326977,12.5446141 45.1326977,13.1950942 L45.1326977,17.2691538 C45.1326977,17.9167466 45.1928577,18.3312884 45.7221816,18.3312884 C45.8796836,18.3312884 45.9778613,18.3312884 46.1946878,18.2516799 L46.6663584,18.0953502 L46.6663584,18.6856083 L43.9144589,19.7093823 C43.5021127,19.4144595 43.3053395,18.8827734 43.2280507,18.429871 C42.5788247,18.981356 41.4591813,19.7093823 40.51584,19.7093823 L40.51584,19.7093823 Z M41.3213148,15.7330803 C40.9077152,15.9108589 40.1807826,16.2457923 40.1807826,17.1895453 C40.1807826,17.7006073 40.476569,18.5284536 41.499288,18.5284536 C41.9897586,18.5284536 42.6770024,18.2516799 43.1687263,17.8594119 L43.1687263,14.9460695 L41.3213148,15.7330803 Z" id="Fill-6" fill="#FFFFFF"></path>
                    <path d="M47.2747258,19.5120109 L47.2747258,19.0409593 L47.9235341,18.9209278 C48.3162448,18.8417317 48.5907245,18.5476339 48.5907245,18.152891 L48.5907245,12.8991402 C48.5907245,12.4478876 48.3751514,12.2102995 47.9811873,12.2102995 C47.8445741,12.2102995 47.6866543,12.2313359 47.5299878,12.289083 L47.2747258,12.3872532 L47.2747258,11.7974075 L50.1030786,10.5764683 L50.5158426,10.5764683 L50.5158426,12.0341707 C51.380224,11.0681438 52.4025252,10.5764683 53.3070132,10.5764683 C55.3102557,10.5764683 56.2728147,12.0143717 56.2728147,13.686151 L56.2728147,18.152891 C56.2728147,18.5476339 56.5690189,18.8631807 56.9613118,18.9209278 L57.6293378,19.0409593 L57.6293378,19.5120109 L52.952738,19.5120109 L52.952738,19.0409593 L53.6011285,18.9209278 C53.9930036,18.8417317 54.3084256,18.5476339 54.3084256,18.152891 L54.3084256,13.7075999 C54.3084256,13.1148669 54.1509235,11.7974075 52.5796628,11.7974075 C51.7144459,11.7974075 50.9875133,12.330331 50.5559493,12.7221865 L50.5559493,18.152891 C50.5559493,18.5476339 50.8697001,18.8417317 51.2632463,18.9209278 L51.911219,19.0409593 L51.911219,19.5120109 L47.2747258,19.5120109 Z" id="Fill-8" fill="#FFFFFF"></path>
                    <path d="M64.4079009,11.7783922 L61.6564192,11.7783922 L61.6564192,16.6592617 C61.6564192,17.7411953 62.2266853,18.3314534 63.0522134,18.3314534 C63.3855997,18.3314534 63.916177,18.2320458 64.4079009,17.9581595 L64.6238918,18.430036 L62.8550225,19.5519801 C62.8550225,19.5519801 62.5020006,19.6101397 62.3252808,19.6101397 C60.615318,19.6101397 59.6916122,18.6078146 59.6916122,16.4810705 L59.6916122,11.7783922 L58.2578003,11.7783922 L58.2578003,11.2871292 C58.2578003,11.2871292 60.4185449,10.4596954 61.2641262,8.43235884 L61.6564192,8.43235884 L61.6564192,10.9307469 L64.7617584,10.9307469 L64.4079009,11.7783922 Z" id="Fill-10" fill="#FFFFFF"></path>
                    <path d="M67.7223377,19.7093823 C66.3858679,19.7093823 65.522322,18.8229639 65.522322,17.5046796 C65.522322,16.5609266 66.2108191,15.8316629 67.7223377,15.2801778 L70.3760595,14.3170383 L70.3760595,13.4887796 C70.3760595,12.2505162 69.8053756,11.4824795 68.941412,11.4824795 C68.3523459,11.4824795 67.7624443,11.7782272 67.4679112,12.2505162 C67.3496802,12.4266449 67.3304625,12.6844446 67.3304625,12.8791349 C67.3304625,13.2140682 67.5468712,13.6067487 67.5468712,13.6067487 L66.2500902,14.1990692 C66.0917526,13.9239454 65.8962328,13.5102285 65.8962328,13.0960991 C65.8962328,13.0181405 65.9162861,12.9389444 65.9162861,12.8791349 C66.0132105,12.1717326 66.6227476,11.6990312 67.4478579,11.2077681 C68.2541682,10.7165051 68.941412,10.5762621 69.4314649,10.5762621 C71.9088846,10.5762621 72.341702,12.5446141 72.341702,13.1950942 L72.341702,17.2691538 C72.341702,17.9167466 72.3993553,18.3312884 72.9307681,18.3312884 C73.0874346,18.3312884 73.1856123,18.3312884 73.4003498,18.2516799 L73.8741094,18.0953502 L73.8741094,18.6856083 L71.1226276,19.7093823 C70.7106992,19.4144595 70.5155971,18.8827734 70.4353839,18.429871 C69.7865756,18.981356 68.6669323,19.7093823 67.7223377,19.7093823 L67.7223377,19.7093823 Z M68.5299013,15.7330803 C68.1171373,15.9108589 67.3889513,16.2457923 67.3889513,17.1895453 C67.3889513,17.7006073 67.6830666,18.5284536 68.7057856,18.5284536 C69.1970918,18.5284536 69.8847533,18.2516799 70.3760595,17.8594119 L70.3760595,14.9460695 L68.5299013,15.7330803 Z" id="Fill-12" fill="#FFFFFF"></path>
                    <path d="M74.4818501,19.5120109 L74.4818501,19.0409593 L75.1298228,18.9209278 C75.5221157,18.8417317 75.7986844,18.5476339 75.7986844,18.152891 L75.7986844,12.8991402 C75.7986844,12.4478876 75.5818579,12.2102995 75.1891472,12.2102995 C75.0516984,12.2102995 74.8946141,12.2313359 74.7366943,12.289083 L74.4818501,12.3872532 L74.4818501,11.7974075 L77.311874,10.5764683 L77.724638,10.5764683 L77.724638,12.0341707 C78.5886016,11.0681438 79.6100673,10.5764683 80.5141375,10.5764683 C82.5165444,10.5764683 83.4807746,12.0143717 83.4807746,13.686151 L83.4807746,18.152891 C83.4807746,18.5476339 83.7757254,18.8631807 84.1684361,18.9209278 L84.8360443,19.0409593 L84.8360443,19.5120109 L80.1606978,19.5120109 L80.1606978,19.0409593 L80.8095061,18.9209278 C81.201799,18.8417317 81.5155498,18.5476339 81.5155498,18.152891 L81.5155498,13.7075999 C81.5155498,13.1148669 81.3584655,11.7974075 79.7867871,11.7974075 C78.9219879,11.7974075 78.1950553,12.330331 77.7634913,12.7221865 L77.7634913,18.152891 C77.7634913,18.5476339 78.0789132,18.8417317 78.4703706,18.9209278 L79.1187611,19.0409593 L79.1187611,19.5120109 L74.4818501,19.5120109 Z" id="Fill-14" fill="#FFFFFF"></path>
                    <path d="M89.8270216,19.7093823 C87.9804457,19.7093823 85.759959,18.3312884 85.759959,15.3403998 C85.759959,12.7223927 87.7832548,10.5762621 90.4950476,10.5762621 C91.3995356,10.5762621 92.0479261,10.7548657 92.5183434,10.9528558 L92.5183434,6.44569277 C92.5183434,5.97175387 92.263917,5.83481069 91.9497484,5.83481069 C91.7721931,5.83481069 91.5762555,5.87440872 91.3995356,5.93256833 L91.0064071,6.07116142 L91.0064071,5.4792534 L94.0720575,4.1820055 L94.4835682,4.1820055 L94.4835682,17.1503597 C94.4835682,17.8998349 94.6013814,18.3312884 95.1327942,18.3312884 C95.2898785,18.3312884 95.386385,18.3312884 95.6032115,18.2516799 L96.0748821,18.0953502 L96.0748821,18.6856083 L93.3246537,19.7093823 C92.8930897,19.4144595 92.6758455,18.8629744 92.5785034,18.4104845 C92.0667261,18.9619695 91.1434381,19.7093823 89.8270216,19.7093823 M90.7106208,11.4053458 C89.2964444,11.4053458 87.8417436,12.3090883 87.8417436,14.9460695 C87.8417436,17.1503597 88.942587,18.4884431 90.6721852,18.4884431 C91.714122,18.4884431 92.3612591,17.877561 92.5183434,17.5636641 L92.5183434,12.4480939 C92.263917,11.7972013 91.5365666,11.4053458 90.7106208,11.4053458" id="Fill-16" fill="#FFFFFF"></path>
                    <path d="M98.9434669,14.4345537 L98.9434669,14.5335488 C98.9238313,17.1503185 100.416968,18.4686028 102.284015,18.4686028 C103.226103,18.4686028 104.091737,18.114283 104.779817,17.5842469 L104.779817,18.3704327 C103.992306,19.0988714 102.795792,19.709341 101.321873,19.709341 C98.2562231,19.709341 96.9009533,17.4064682 96.9009533,15.221977 C96.9009533,12.6625419 98.8452892,10.5762208 101.359473,10.5762208 C103.423294,10.5762208 105.035496,12.0343357 105.035496,14.1796414 L105.035496,14.4345537 L98.9434669,14.4345537 Z M102.971676,13.6281564 L102.971676,13.5893833 C102.971676,12.1131193 102.146566,11.4024172 101.164371,11.4024172 C100.06311,11.4024172 99.2367466,12.1329183 99.0023735,13.6281564 L102.971676,13.6281564 Z" id="Fill-18" fill="#FFFFFF"></path>
                    <path d="M106.193366,19.5120109 L106.193366,19.0409593 L106.842175,18.9209278 C107.216503,18.8417317 107.509783,18.5476339 107.509783,18.152891 L107.509783,12.8991402 C107.509783,12.4478876 107.29421,12.2102995 106.901917,12.2102995 C106.764886,12.2102995 106.60613,12.2313359 106.450299,12.289083 L106.193366,12.3872532 L106.193366,11.7974075 L108.982448,10.5764683 L109.396465,10.5764683 L109.396465,12.4866607 C110.103763,11.1093918 110.948926,10.5381077 111.911067,10.5381077 C112.69816,10.5381077 112.894098,10.7352729 112.894098,10.7352729 L112.894098,12.8207691 L112.502222,12.8207691 C112.403627,12.270109 112.029298,11.9945727 111.44065,11.9945727 C110.811477,11.9945727 110.02522,12.1715264 109.475008,13.3128571 L109.475008,18.152891 C109.475008,18.5476339 109.868136,18.8631807 110.241629,18.9209278 L111.185806,19.0409593 L111.185806,19.5120109 L106.193366,19.5120109 Z" id="Fill-20" fill="#FFFFFF"></path>
                </g>
            </g>
        </g>
    </g>
</svg>