<?xml version="1.0" encoding="UTF-8"?>
<svg width="18px" height="20px" viewBox="0 0 18 20" version="1.1" xmlns="http://www.w3.org/2000/svg" xmlns:xlink="http://www.w3.org/1999/xlink">
    <!-- Generator: Sketch 44.1 (41455) - http://www.bohemiancoding.com/sketch -->
    <title>Page 1 Copy 5</title>
    <desc>Created with Sketch.</desc>
    <defs></defs>
    <g id="Symbols" stroke="none" stroke-width="1" fill="none" fill-rule="evenodd">
        <g id="Footer-Desktop" transform="translate(-1387.000000, -27.000000)" fill="#FFFFFF">
            <g id="Footer">
                <path d="M1387.04167,47 L1391,47 L1391,32.3333333 L1387.04167,32.3333333 L1387.04167,47 Z M1399.125,32.3333333 C1398.93055,32.3333333 1398.74306,32.3472213 1398.5625,32.375 C1398.38194,32.4027787 1398.20833,32.4444453 1398.04167,32.5 C1397.875,32.5555547 1397.73611,32.6041653 1397.625,32.6458347 C1397.51389,32.6875013 1397.375,32.756944 1397.20833,32.8541653 C1397.04167,32.9513893 1396.9375,33.013888 1396.89583,33.0416667 C1396.85417,33.0694453 1396.75,33.152776 1396.58333,33.2916667 C1396.41667,33.4305573 1396.33333,33.5 1396.33333,33.5 L1396.33333,32.3333333 L1392.375,32.3333333 L1392.375,47 L1396.33333,47 L1396.33333,37.75 L1396.33333,37.5833333 C1396.33333,37.5 1396.36806,37.347224 1396.4375,37.125 C1396.50694,36.902776 1396.60417,36.7152773 1396.72917,36.5625013 C1396.85417,36.4097227 1397.0625,36.2638907 1397.35417,36.125 C1397.64583,35.9861093 1397.98611,35.9166667 1398.375,35.9166667 C1399.04167,35.9166667 1399.53472,36.0833307 1399.85417,36.4166667 C1400.17361,36.7500027 1400.33333,37.1944427 1400.33333,37.75 L1400.33333,47 L1404.54167,47 L1404.54167,37.9166667 C1404.54167,36.94444 1404.38889,36.1041707 1404.08333,35.3958347 C1403.77778,34.687496 1403.42361,34.1458347 1403.02083,33.770832 C1402.61805,33.395832 1402.14584,33.09028 1401.60417,32.8541653 C1401.0625,32.6180533 1400.60417,32.4722213 1400.22917,32.4166667 C1399.85417,32.361112 1399.48611,32.3333333 1399.125,32.3333333 L1399.125,32.3333333 Z M1387,29 C1387,29.5555573 1387.19444,30.027776 1387.58333,30.4166667 C1387.97222,30.8055573 1388.44444,31 1389,31 C1389.55556,31 1390.02778,30.8055573 1390.41667,30.4166667 C1390.80556,30.027776 1391,29.5555573 1391,29 C1391,28.4444427 1390.80556,27.972224 1390.41667,27.5833333 C1390.02778,27.1944427 1389.55556,27 1389,27 C1388.44444,27 1387.97222,27.1944427 1387.58333,27.5833333 C1387.19444,27.972224 1387,28.4444427 1387,29 L1387,29 Z" id="Page-1-Copy-5"></path>
            </g>
        </g>
    </g>
</svg>