<?xml version="1.0" encoding="UTF-8"?>
<svg width="30px" height="21px" viewBox="0 0 30 21" version="1.1" xmlns="http://www.w3.org/2000/svg" xmlns:xlink="http://www.w3.org/1999/xlink">
    <!-- Generator: Sketch 44.1 (41455) - http://www.bohemiancoding.com/sketch -->
    <title>Page 1 Copy 3</title>
    <desc>Created with Sketch.</desc>
    <defs></defs>
    <g id="Symbols" stroke="none" stroke-width="1" fill="none" fill-rule="evenodd" opacity="0.7">
        <g id="Footer-Desktop" transform="translate(-1326.000000, -27.000000)" fill="#FFFFFF">
            <g id="Footer">
                <path d="M1351.14205,27.3977291 C1343.26322,26.8674236 1336.17996,26.8674236 1329.89205,27.3977291 C1328.90719,27.5113655 1328.07387,28.0606018 1327.39205,29.0454564 C1326.71022,30.0303109 1326.3125,31.0530273 1326.19886,32.1136382 C1325.93371,35.5985036 1325.93371,39.0833182 1326.19886,42.5681836 C1326.3125,43.6287945 1326.71022,44.651512 1327.39205,45.6363655 C1328.07387,46.6212189 1328.90719,47.189395 1329.89205,47.3409109 C1337.5436,47.8333375 1344.62686,47.8333375 1351.14205,47.3409109 C1352.1269,47.151516 1352.96022,46.5644007 1353.64205,45.5795473 C1354.32387,44.5946938 1354.72159,43.5909145 1354.83523,42.5681836 C1355.10038,39.0075582 1355.10038,35.4280491 1354.83523,31.8295473 C1354.72159,30.7310564 1354.35228,29.7272782 1353.72727,28.8181836 C1353.10227,27.9090891 1352.24054,27.4356091 1351.14205,27.3977291 L1351.14205,27.3977291 Z M1336.88068,42.5113655 L1336.88068,32.05682 L1345.97159,37.2840927 L1336.88068,42.5113655 Z" id="Page-1-Copy-3"></path>
            </g>
        </g>
    </g>
</svg>